<svg width="26" height="26" viewBox="0 0 26 26" fill="none" xmlns="http://www.w3.org/2000/svg">
<path d="M14.299 1.25C13.7217 0.250001 12.2783 0.249998 11.701 1.25L2.17468 17.75C1.59733 18.75 2.31902 20 3.47372 20H22.5263C23.681 20 24.4027 18.75 23.8253 17.75L14.299 1.25Z" fill="#FF9C07" stroke="black"/>
<path d="M14.1893 13.3117H11.7283L11.4574 6.5H14.4719L14.1893 13.3117ZM11.375 15.3944C11.375 15.1423 11.5202 14.9345 11.8107 14.7709C12.1011 14.6029 12.4976 14.5189 13 14.5189C13.5024 14.5189 13.8989 14.6029 14.1893 14.7709C14.4798 14.9345 14.625 15.1423 14.625 15.3944C14.625 15.6376 14.4837 15.841 14.2011 16.0046C13.9185 16.1682 13.5181 16.25 13 16.25C12.4819 16.25 12.0815 16.1682 11.7989 16.0046C11.5163 15.841 11.375 15.6376 11.375 15.3944Z" fill="black"/>
</svg>
