<svg width="375" height="392" viewBox="0 0 375 392" fill="none" xmlns="http://www.w3.org/2000/svg">
<g filter="url(#filter0_d_35_2)">
<rect x="13" y="10" width="146" height="40" rx="20" fill="white"/>
</g>
<path d="M40.0659 32.0864L40.2437 33.3052L40.5039 32.207L42.332 25.7578H43.3604L45.144 32.207L45.3979 33.3242L45.5947 32.0801L47.0293 25.7578H48.2544L46.0137 35H44.9028L42.9985 28.2651L42.8525 27.5605L42.7065 28.2651L40.7324 35H39.6216L37.3872 25.7578H38.606L40.0659 32.0864ZM52.0757 35.127C51.1447 35.127 50.3872 34.8223 49.8032 34.2129C49.2192 33.5993 48.9272 32.7804 48.9272 31.7563V31.5405C48.9272 30.8592 49.0563 30.252 49.3145 29.7188C49.5768 29.1813 49.9408 28.7624 50.4062 28.4619C50.876 28.1572 51.3838 28.0049 51.9297 28.0049C52.8226 28.0049 53.5166 28.299 54.0117 28.8872C54.5068 29.4754 54.7544 30.3175 54.7544 31.4136V31.9023H50.1016C50.1185 32.5794 50.3153 33.1274 50.6919 33.5464C51.0728 33.9611 51.5552 34.1685 52.1392 34.1685C52.5539 34.1685 52.9051 34.0838 53.1929 33.9146C53.4806 33.7453 53.7324 33.521 53.9482 33.2417L54.6655 33.8003C54.09 34.6847 53.2267 35.127 52.0757 35.127ZM51.9297 28.9697C51.4557 28.9697 51.0579 29.1432 50.7363 29.4902C50.4147 29.833 50.2158 30.3154 50.1396 30.9375H53.5801V30.8486C53.5462 30.252 53.3854 29.7907 53.0977 29.4648C52.8099 29.1348 52.4206 28.9697 51.9297 28.9697ZM61.9336 31.6421C61.9336 32.6916 61.6924 33.5358 61.21 34.1748C60.7275 34.8096 60.0801 35.127 59.2676 35.127C58.4001 35.127 57.7293 34.8201 57.2554 34.2065L57.1982 35H56.1191V25.25H57.2935V28.8872C57.7674 28.299 58.4212 28.0049 59.2549 28.0049C60.0885 28.0049 60.7424 28.3201 61.2163 28.9507C61.6945 29.5812 61.9336 30.4445 61.9336 31.5405V31.6421ZM60.7593 31.5088C60.7593 30.709 60.6048 30.0911 60.2959 29.6553C59.987 29.2194 59.5426 29.0015 58.9629 29.0015C58.1885 29.0015 57.632 29.3612 57.2935 30.0806V33.0513C57.6532 33.7707 58.2139 34.1304 58.9756 34.1304C59.5384 34.1304 59.9764 33.9124 60.2896 33.4766C60.6027 33.0407 60.7593 32.3848 60.7593 31.5088ZM72.2612 35H71.0869V29.103H67.9258V35H66.7451V28.1318H72.2612V35ZM79.7769 28.1318V35H78.5962V29.103H76.2603L76.1206 31.6738C76.0444 32.8545 75.8455 33.6987 75.5239 34.2065C75.2065 34.7144 74.7008 34.9788 74.0068 35H73.5371V33.9653L73.8735 33.9399C74.2544 33.8976 74.5273 33.6776 74.6924 33.2798C74.8574 32.882 74.9632 32.1457 75.0098 31.0708L75.1367 28.1318H79.7769ZM85.9023 35C85.8346 34.8646 85.7796 34.6234 85.7373 34.2764C85.1914 34.8434 84.5397 35.127 83.7822 35.127C83.1051 35.127 82.5487 34.9365 82.1128 34.5557C81.6812 34.1706 81.4653 33.6839 81.4653 33.0957C81.4653 32.3805 81.7362 31.8262 82.2778 31.4326C82.8237 31.0348 83.5897 30.8359 84.5757 30.8359H85.7183V30.2964C85.7183 29.8859 85.5955 29.5601 85.3501 29.3188C85.1047 29.0734 84.7428 28.9507 84.2646 28.9507C83.8457 28.9507 83.4945 29.0565 83.2109 29.2681C82.9274 29.4797 82.7856 29.7357 82.7856 30.0361H81.605C81.605 29.6934 81.7256 29.3633 81.9668 29.0459C82.2122 28.7243 82.5423 28.4704 82.957 28.2842C83.376 28.098 83.8351 28.0049 84.3345 28.0049C85.1258 28.0049 85.7458 28.2038 86.1943 28.6016C86.6429 28.9951 86.8757 29.5389 86.8926 30.2329V33.394C86.8926 34.0246 86.973 34.526 87.1338 34.8984V35H85.9023ZM83.9536 34.105C84.3218 34.105 84.6709 34.0098 85.001 33.8193C85.3311 33.6289 85.5701 33.3813 85.7183 33.0767V31.6675H84.7979C83.359 31.6675 82.6396 32.0885 82.6396 32.9307C82.6396 33.2988 82.7624 33.5866 83.0078 33.7939C83.2533 34.0013 83.5685 34.105 83.9536 34.105ZM93.7354 29.084H91.4312V35H90.2568V29.084H87.9971V28.1318H93.7354V29.084ZM94.1162 31.6929C94.1162 30.5461 94.3384 29.6447 94.7827 28.9888C95.2271 28.3328 95.8364 28.0049 96.6108 28.0049C96.9705 28.0049 97.2858 28.0662 97.5566 28.189V25.25H98.731V28.2271C99.0272 28.0789 99.3742 28.0049 99.772 28.0049C100.551 28.0049 101.162 28.3328 101.606 28.9888C102.051 29.6447 102.273 30.5905 102.273 31.8262C102.273 32.8376 102.051 33.6416 101.606 34.2383C101.166 34.835 100.559 35.1333 99.7847 35.1333C99.3742 35.1333 99.0229 35.0656 98.731 34.9302V37.6406H97.5566V34.9492C97.2773 35.0719 96.9578 35.1333 96.5981 35.1333C95.828 35.1333 95.2207 34.835 94.7764 34.2383C94.3363 33.6416 94.1162 32.8249 94.1162 31.7881V31.6929ZM101.099 31.6929C101.099 30.8296 100.951 30.161 100.654 29.687C100.358 29.2088 99.9497 28.9697 99.4292 28.9697C99.1626 28.9697 98.9299 29.012 98.731 29.0967V34.0669C98.9214 34.1388 99.1584 34.1748 99.4419 34.1748C99.9666 34.1748 100.373 33.9717 100.661 33.5654C100.953 33.1592 101.099 32.535 101.099 31.6929ZM95.2905 31.8262C95.2905 32.5964 95.4281 33.1803 95.7031 33.5781C95.9782 33.9759 96.3739 34.1748 96.8901 34.1748C97.1356 34.1748 97.3577 34.1367 97.5566 34.0605V29.0776C97.3789 29.0057 97.161 28.9697 96.9028 28.9697C96.3866 28.9697 95.9888 29.2004 95.7095 29.6616C95.4302 30.1229 95.2905 30.8444 95.2905 31.8262ZM103.492 31.5024C103.492 30.8296 103.623 30.2244 103.885 29.687C104.152 29.1496 104.52 28.7349 104.99 28.4429C105.464 28.1509 106.003 28.0049 106.608 28.0049C107.544 28.0049 108.299 28.3286 108.875 28.9761C109.454 29.6235 109.744 30.4847 109.744 31.5596V31.6421C109.744 32.3107 109.615 32.9116 109.357 33.4448C109.103 33.9738 108.737 34.3864 108.259 34.6826C107.785 34.9788 107.239 35.127 106.621 35.127C105.69 35.127 104.935 34.8032 104.355 34.1558C103.779 33.5083 103.492 32.6514 103.492 31.585V31.5024ZM104.672 31.6421C104.672 32.4038 104.848 33.0153 105.199 33.4766C105.555 33.9378 106.029 34.1685 106.621 34.1685C107.218 34.1685 107.692 33.9357 108.043 33.4702C108.394 33.0005 108.57 32.3446 108.57 31.5024C108.57 30.7492 108.39 30.1398 108.03 29.6743C107.675 29.2046 107.201 28.9697 106.608 28.9697C106.029 28.9697 105.561 29.2004 105.206 29.6616C104.85 30.1229 104.672 30.783 104.672 31.6421ZM117.019 31.6421C117.019 32.6873 116.779 33.5295 116.301 34.1685C115.823 34.8075 115.176 35.127 114.359 35.127C113.525 35.127 112.869 34.8625 112.391 34.3335V37.6406H111.217V28.1318H112.29L112.347 28.8936C112.825 28.3011 113.489 28.0049 114.34 28.0049C115.165 28.0049 115.817 28.3159 116.295 28.938C116.777 29.5601 117.019 30.4255 117.019 31.5342V31.6421ZM115.844 31.5088C115.844 30.7344 115.679 30.1229 115.349 29.6743C115.019 29.2257 114.566 29.0015 113.991 29.0015C113.28 29.0015 112.747 29.3167 112.391 29.9473V33.229C112.742 33.8553 113.28 34.1685 114.003 34.1685C114.566 34.1685 115.013 33.9463 115.343 33.502C115.677 33.0534 115.844 32.389 115.844 31.5088ZM122.471 33.4448L124.807 28.1318H126.273V35H125.099V30.0044L122.877 35H122.065L119.799 29.8965V35H118.625V28.1318H120.148L122.471 33.4448ZM132.405 35C132.338 34.8646 132.283 34.6234 132.24 34.2764C131.694 34.8434 131.043 35.127 130.285 35.127C129.608 35.127 129.052 34.9365 128.616 34.5557C128.184 34.1706 127.968 33.6839 127.968 33.0957C127.968 32.3805 128.239 31.8262 128.781 31.4326C129.327 31.0348 130.093 30.8359 131.079 30.8359H132.221V30.2964C132.221 29.8859 132.098 29.5601 131.853 29.3188C131.608 29.0734 131.246 28.9507 130.768 28.9507C130.349 28.9507 129.997 29.0565 129.714 29.2681C129.43 29.4797 129.289 29.7357 129.289 30.0361H128.108C128.108 29.6934 128.229 29.3633 128.47 29.0459C128.715 28.7243 129.045 28.4704 129.46 28.2842C129.879 28.098 130.338 28.0049 130.837 28.0049C131.629 28.0049 132.249 28.2038 132.697 28.6016C133.146 28.9951 133.379 29.5389 133.396 30.2329V33.394C133.396 34.0246 133.476 34.526 133.637 34.8984V35H132.405ZM130.457 34.105C130.825 34.105 131.174 34.0098 131.504 33.8193C131.834 33.6289 132.073 33.3813 132.221 33.0767V31.6675H131.301C129.862 31.6675 129.143 32.0885 129.143 32.9307C129.143 33.2988 129.265 33.5866 129.511 33.7939C129.756 34.0013 130.071 34.105 130.457 34.105Z" fill="#333333"/>
<g filter="url(#filter1_d_35_2)">
<rect x="165" y="10" width="197" height="40" rx="20" fill="white"/>
</g>
<path d="M191.647 25.7578L194.668 33.2988L197.69 25.7578H199.271V35H198.052V31.4009L198.166 27.5161L195.132 35H194.199L191.171 27.5352L191.292 31.4009V35H190.073V25.7578H191.647ZM200.927 31.5024C200.927 30.8296 201.058 30.2244 201.321 29.687C201.587 29.1496 201.956 28.7349 202.425 28.4429C202.899 28.1509 203.439 28.0049 204.044 28.0049C204.979 28.0049 205.735 28.3286 206.31 28.9761C206.89 29.6235 207.18 30.4847 207.18 31.5596V31.6421C207.18 32.3107 207.051 32.9116 206.792 33.4448C206.539 33.9738 206.173 34.3864 205.694 34.6826C205.22 34.9788 204.674 35.127 204.057 35.127C203.126 35.127 202.37 34.8032 201.791 34.1558C201.215 33.5083 200.927 32.6514 200.927 31.585V31.5024ZM202.108 31.6421C202.108 32.4038 202.284 33.0153 202.635 33.4766C202.99 33.9378 203.464 34.1685 204.057 34.1685C204.653 34.1685 205.127 33.9357 205.479 33.4702C205.83 33.0005 206.005 32.3446 206.005 31.5024C206.005 30.7492 205.826 30.1398 205.466 29.6743C205.11 29.2046 204.636 28.9697 204.044 28.9697C203.464 28.9697 202.997 29.2004 202.641 29.6616C202.286 30.1229 202.108 30.783 202.108 31.6421ZM211.667 28.5254C212.531 28.5254 213.221 28.8153 213.737 29.395C214.257 29.9705 214.518 30.7301 214.518 31.6738V31.7817C214.518 32.4292 214.393 33.009 214.143 33.521C213.893 34.0288 213.534 34.4245 213.064 34.708C212.598 34.9873 212.061 35.127 211.452 35.127C210.529 35.127 209.786 34.8201 209.224 34.2065C208.661 33.5887 208.379 32.7614 208.379 31.7246V31.1533C208.379 29.7103 208.646 28.5635 209.179 27.7129C209.717 26.8623 210.508 26.3439 211.553 26.1577C212.146 26.0519 212.546 25.9229 212.753 25.7705C212.96 25.6182 213.064 25.4087 213.064 25.1421H214.029C214.029 25.6711 213.908 26.0837 213.667 26.3799C213.43 26.6761 213.049 26.8856 212.524 27.0083L211.648 27.2051C210.95 27.3701 210.425 27.6494 210.074 28.043C209.727 28.4323 209.501 28.9528 209.395 29.6045C210.017 28.8851 210.775 28.5254 211.667 28.5254ZM211.439 29.4902C210.863 29.4902 210.406 29.6849 210.068 30.0742C209.729 30.4593 209.56 30.9946 209.56 31.6802V31.7817C209.56 32.5181 209.729 33.1021 210.068 33.5337C210.411 33.9611 210.872 34.1748 211.452 34.1748C212.036 34.1748 212.497 33.959 212.835 33.5273C213.174 33.0957 213.343 32.4652 213.343 31.6357C213.343 30.9883 213.172 30.4699 212.829 30.0806C212.491 29.687 212.027 29.4902 211.439 29.4902ZM220.167 28.1318H221.341V35H220.167V29.9917L217 35H215.825V28.1318H217V33.1465L220.167 28.1318ZM228.857 28.1318V35H227.676V29.103H225.34L225.201 31.6738C225.125 32.8545 224.926 33.6987 224.604 34.2065C224.287 34.7144 223.781 34.9788 223.087 35H222.617V33.9653L222.954 33.9399C223.334 33.8976 223.607 33.6776 223.772 33.2798C223.938 32.882 224.043 32.1457 224.09 31.0708L224.217 28.1318H228.857ZM232.024 30.4995H233.808C234.587 30.508 235.202 30.7111 235.655 31.1089C236.108 31.5067 236.334 32.0462 236.334 32.7275C236.334 33.4131 236.102 33.9632 235.636 34.3779C235.171 34.7926 234.544 35 233.757 35H230.85V28.1318H232.024V30.4995ZM232.024 31.458V34.0415H233.77C234.21 34.0415 234.551 33.9294 234.792 33.7051C235.033 33.4766 235.154 33.1655 235.154 32.772C235.154 32.3911 235.035 32.0801 234.798 31.8389C234.566 31.5934 234.238 31.4665 233.814 31.458H232.024ZM243.412 35H242.238V32.0674H239.083V35H237.902V28.1318H239.083V31.1089H242.238V28.1318H243.412V35ZM244.993 31.5024C244.993 30.8296 245.124 30.2244 245.386 29.687C245.653 29.1496 246.021 28.7349 246.491 28.4429C246.965 28.1509 247.504 28.0049 248.109 28.0049C249.045 28.0049 249.8 28.3286 250.375 28.9761C250.955 29.6235 251.245 30.4847 251.245 31.5596V31.6421C251.245 32.3107 251.116 32.9116 250.858 33.4448C250.604 33.9738 250.238 34.3864 249.76 34.6826C249.286 34.9788 248.74 35.127 248.122 35.127C247.191 35.127 246.436 34.8032 245.856 34.1558C245.28 33.5083 244.993 32.6514 244.993 31.585V31.5024ZM246.173 31.6421C246.173 32.4038 246.349 33.0153 246.7 33.4766C247.056 33.9378 247.53 34.1685 248.122 34.1685C248.719 34.1685 249.193 33.9357 249.544 33.4702C249.895 33.0005 250.071 32.3446 250.071 31.5024C250.071 30.7492 249.891 30.1398 249.531 29.6743C249.176 29.2046 248.702 28.9697 248.109 28.9697C247.53 28.9697 247.062 29.2004 246.707 29.6616C246.351 30.1229 246.173 30.783 246.173 31.6421ZM255.568 35.127C254.637 35.127 253.879 34.8223 253.295 34.2129C252.711 33.5993 252.419 32.7804 252.419 31.7563V31.5405C252.419 30.8592 252.549 30.252 252.807 29.7188C253.069 29.1813 253.433 28.7624 253.898 28.4619C254.368 28.1572 254.876 28.0049 255.422 28.0049C256.315 28.0049 257.009 28.299 257.504 28.8872C257.999 29.4754 258.247 30.3175 258.247 31.4136V31.9023H253.594C253.611 32.5794 253.807 33.1274 254.184 33.5464C254.565 33.9611 255.047 34.1685 255.631 34.1685C256.046 34.1685 256.397 34.0838 256.685 33.9146C256.973 33.7453 257.225 33.521 257.44 33.2417L258.158 33.8003C257.582 34.6847 256.719 35.127 255.568 35.127ZM255.422 28.9697C254.948 28.9697 254.55 29.1432 254.229 29.4902C253.907 29.833 253.708 30.3154 253.632 30.9375H257.072V30.8486C257.038 30.252 256.878 29.7907 256.59 29.4648C256.302 29.1348 255.913 28.9697 255.422 28.9697ZM268.454 35H267.279V29.103H264.118V35H262.938V28.1318H268.454V35ZM276.141 31.6421C276.141 32.6873 275.902 33.5295 275.423 34.1685C274.945 34.8075 274.298 35.127 273.481 35.127C272.647 35.127 271.991 34.8625 271.513 34.3335V37.6406H270.339V28.1318H271.412L271.469 28.8936C271.947 28.3011 272.611 28.0049 273.462 28.0049C274.287 28.0049 274.939 28.3159 275.417 28.938C275.899 29.5601 276.141 30.4255 276.141 31.5342V31.6421ZM274.966 31.5088C274.966 30.7344 274.801 30.1229 274.471 29.6743C274.141 29.2257 273.688 29.0015 273.113 29.0015C272.402 29.0015 271.869 29.3167 271.513 29.9473V33.229C271.864 33.8553 272.402 34.1685 273.125 34.1685C273.688 34.1685 274.135 33.9463 274.465 33.502C274.799 33.0534 274.966 32.389 274.966 31.5088ZM282.082 28.1318H283.256V35H282.082V29.9917L278.915 35H277.74V28.1318H278.915V33.1465L282.082 28.1318ZM290.772 28.1318V35H289.591V29.103H287.255L287.116 31.6738C287.04 32.8545 286.841 33.6987 286.519 34.2065C286.202 34.7144 285.696 34.9788 285.002 35H284.532V33.9653L284.869 33.9399C285.25 33.8976 285.522 33.6776 285.688 33.2798C285.853 32.882 285.958 32.1457 286.005 31.0708L286.132 28.1318H290.772ZM292.346 31.5024C292.346 30.8296 292.477 30.2244 292.74 29.687C293.006 29.1496 293.375 28.7349 293.844 28.4429C294.318 28.1509 294.858 28.0049 295.463 28.0049C296.398 28.0049 297.153 28.3286 297.729 28.9761C298.309 29.6235 298.599 30.4847 298.599 31.5596V31.6421C298.599 32.3107 298.47 32.9116 298.211 33.4448C297.958 33.9738 297.591 34.3864 297.113 34.6826C296.639 34.9788 296.093 35.127 295.476 35.127C294.545 35.127 293.789 34.8032 293.209 34.1558C292.634 33.5083 292.346 32.6514 292.346 31.585V31.5024ZM293.527 31.6421C293.527 32.4038 293.702 33.0153 294.054 33.4766C294.409 33.9378 294.883 34.1685 295.476 34.1685C296.072 34.1685 296.546 33.9357 296.897 33.4702C297.249 33.0005 297.424 32.3446 297.424 31.5024C297.424 30.7492 297.244 30.1398 296.885 29.6743C296.529 29.2046 296.055 28.9697 295.463 28.9697C294.883 28.9697 294.416 29.2004 294.06 29.6616C293.705 30.1229 293.527 30.783 293.527 31.6421ZM305.41 32.0166H304.584V35H303.41V32.0166H302.585L300.662 35H299.176L301.633 31.4453L299.411 28.1318H300.833L302.604 30.9756H303.41V28.1318H304.584V30.9756H305.384L307.168 28.1318H308.59L306.362 31.4517L308.818 35H307.333L305.41 32.0166ZM312.608 35.127C311.677 35.127 310.919 34.8223 310.335 34.2129C309.751 33.5993 309.459 32.7804 309.459 31.7563V31.5405C309.459 30.8592 309.589 30.252 309.847 29.7188C310.109 29.1813 310.473 28.7624 310.938 28.4619C311.408 28.1572 311.916 28.0049 312.462 28.0049C313.355 28.0049 314.049 28.299 314.544 28.8872C315.039 29.4754 315.287 30.3175 315.287 31.4136V31.9023H310.634C310.651 32.5794 310.847 33.1274 311.224 33.5464C311.605 33.9611 312.087 34.1685 312.671 34.1685C313.086 34.1685 313.437 34.0838 313.725 33.9146C314.013 33.7453 314.265 33.521 314.48 33.2417L315.198 33.8003C314.622 34.6847 313.759 35.127 312.608 35.127ZM312.462 28.9697C311.988 28.9697 311.59 29.1432 311.269 29.4902C310.947 29.833 310.748 30.3154 310.672 30.9375H314.112V30.8486C314.078 30.252 313.918 29.7907 313.63 29.4648C313.342 29.1348 312.953 28.9697 312.462 28.9697ZM322.263 35H321.088V32.0674H317.934V35H316.753V28.1318H317.934V31.1089H321.088V28.1318H322.263V35ZM328.598 28.1318H329.772V35H328.598V29.9917L325.43 35H324.256V28.1318H325.43V33.1465L328.598 28.1318ZM334.507 35.127C333.576 35.127 332.819 34.8223 332.235 34.2129C331.651 33.5993 331.359 32.7804 331.359 31.7563V31.5405C331.359 30.8592 331.488 30.252 331.746 29.7188C332.008 29.1813 332.372 28.7624 332.838 28.4619C333.308 28.1572 333.815 28.0049 334.361 28.0049C335.254 28.0049 335.948 28.299 336.443 28.8872C336.938 29.4754 337.186 30.3175 337.186 31.4136V31.9023H332.533C332.55 32.5794 332.747 33.1274 333.124 33.5464C333.504 33.9611 333.987 34.1685 334.571 34.1685C334.986 34.1685 335.337 34.0838 335.625 33.9146C335.912 33.7453 336.164 33.521 336.38 33.2417L337.097 33.8003C336.522 34.6847 335.658 35.127 334.507 35.127ZM334.361 28.9697C333.887 28.9697 333.49 29.1432 333.168 29.4902C332.846 29.833 332.647 30.3154 332.571 30.9375H336.012V30.8486C335.978 30.252 335.817 29.7907 335.529 29.4648C335.242 29.1348 334.852 28.9697 334.361 28.9697Z" fill="#333333"/>
<g filter="url(#filter2_d_35_2)">
<rect x="68" y="58" width="239" height="40" rx="20" fill="white"/>
</g>
<path d="M99.8711 80.0674C99.7568 81.0449 99.395 81.8003 98.7856 82.3335C98.1805 82.8625 97.3743 83.127 96.3672 83.127C95.2754 83.127 94.3994 82.7355 93.7393 81.9526C93.0833 81.1698 92.7554 80.1224 92.7554 78.8105V77.9219C92.7554 77.0628 92.9077 76.3075 93.2124 75.6558C93.5213 75.0041 93.9572 74.5047 94.52 74.1577C95.0828 73.8065 95.7345 73.6309 96.4751 73.6309C97.4569 73.6309 98.244 73.9059 98.8364 74.4561C99.4289 75.002 99.7738 75.7594 99.8711 76.7285H98.646C98.5402 75.9922 98.3096 75.459 97.9541 75.1289C97.6029 74.7988 97.1099 74.6338 96.4751 74.6338C95.6965 74.6338 95.085 74.9215 94.6406 75.4971C94.2005 76.0726 93.9805 76.8914 93.9805 77.9536V78.8486C93.9805 79.8516 94.1899 80.6493 94.6089 81.2417C95.0278 81.8341 95.6139 82.1304 96.3672 82.1304C97.0443 82.1304 97.5627 81.978 97.9224 81.6733C98.2863 81.3644 98.5275 80.8291 98.646 80.0674H99.8711ZM106.46 77.084H104.156V83H102.981V77.084H100.722V76.1318H106.46V77.084ZM107.025 79.5024C107.025 78.8296 107.156 78.2244 107.418 77.687C107.685 77.1496 108.053 76.7349 108.523 76.4429C108.997 76.1509 109.536 76.0049 110.142 76.0049C111.077 76.0049 111.832 76.3286 112.408 76.9761C112.987 77.6235 113.277 78.4847 113.277 79.5596V79.6421C113.277 80.3107 113.148 80.9116 112.89 81.4448C112.636 81.9738 112.27 82.3864 111.792 82.6826C111.318 82.9788 110.772 83.127 110.154 83.127C109.223 83.127 108.468 82.8032 107.888 82.1558C107.313 81.5083 107.025 80.6514 107.025 79.585V79.5024ZM108.206 79.6421C108.206 80.4038 108.381 81.0153 108.732 81.4766C109.088 81.9378 109.562 82.1685 110.154 82.1685C110.751 82.1685 111.225 81.9357 111.576 81.4702C111.927 81.0005 112.103 80.3446 112.103 79.5024C112.103 78.7492 111.923 78.1398 111.563 77.6743C111.208 77.2046 110.734 76.9697 110.142 76.9697C109.562 76.9697 109.094 77.2004 108.739 77.6616C108.383 78.1229 108.206 78.783 108.206 79.6421ZM120.552 79.6421C120.552 80.6873 120.313 81.5295 119.834 82.1685C119.356 82.8075 118.709 83.127 117.892 83.127C117.058 83.127 116.403 82.8625 115.924 82.3335V85.6406H114.75V76.1318H115.823L115.88 76.8936C116.358 76.3011 117.022 76.0049 117.873 76.0049C118.698 76.0049 119.35 76.3159 119.828 76.938C120.311 77.5601 120.552 78.4255 120.552 79.5342V79.6421ZM119.377 79.5088C119.377 78.7344 119.212 78.1229 118.882 77.6743C118.552 77.2257 118.099 77.0015 117.524 77.0015C116.813 77.0015 116.28 77.3167 115.924 77.9473V81.229C116.276 81.8553 116.813 82.1685 117.537 82.1685C118.099 82.1685 118.546 81.9463 118.876 81.502C119.21 81.0534 119.377 80.389 119.377 79.5088ZM121.739 79.5024C121.739 78.8296 121.87 78.2244 122.132 77.687C122.399 77.1496 122.767 76.7349 123.237 76.4429C123.711 76.1509 124.25 76.0049 124.855 76.0049C125.791 76.0049 126.546 76.3286 127.122 76.9761C127.701 77.6235 127.991 78.4847 127.991 79.5596V79.6421C127.991 80.3107 127.862 80.9116 127.604 81.4448C127.35 81.9738 126.984 82.3864 126.506 82.6826C126.032 82.9788 125.486 83.127 124.868 83.127C123.937 83.127 123.182 82.8032 122.602 82.1558C122.027 81.5083 121.739 80.6514 121.739 79.585V79.5024ZM122.919 79.6421C122.919 80.4038 123.095 81.0153 123.446 81.4766C123.802 81.9378 124.276 82.1685 124.868 82.1685C125.465 82.1685 125.939 81.9357 126.29 81.4702C126.641 81.0005 126.817 80.3446 126.817 79.5024C126.817 78.7492 126.637 78.1398 126.277 77.6743C125.922 77.2046 125.448 76.9697 124.855 76.9697C124.276 76.9697 123.808 77.2004 123.453 77.6616C123.097 78.1229 122.919 78.783 122.919 79.6421ZM135.075 83H133.901V80.0674H130.746V83H129.565V76.1318H130.746V79.1089H133.901V76.1318H135.075V83ZM142.578 83H141.404V80.0674H138.249V83H137.068V76.1318H138.249V79.1089H141.404V76.1318H142.578V83ZM148.913 76.1318H150.087V83H148.913V77.9917L145.746 83H144.571V76.1318H145.746V81.1465L148.913 76.1318ZM154.823 83.127C153.892 83.127 153.134 82.8223 152.55 82.2129C151.966 81.5993 151.674 80.7804 151.674 79.7563V79.5405C151.674 78.8592 151.803 78.252 152.062 77.7188C152.324 77.1813 152.688 76.7624 153.153 76.4619C153.623 76.1572 154.131 76.0049 154.677 76.0049C155.57 76.0049 156.264 76.299 156.759 76.8872C157.254 77.4754 157.501 78.3175 157.501 79.4136V79.9023H152.849C152.866 80.5794 153.062 81.1274 153.439 81.5464C153.82 81.9611 154.302 82.1685 154.886 82.1685C155.301 82.1685 155.652 82.0838 155.94 81.9146C156.228 81.7453 156.479 81.521 156.695 81.2417L157.413 81.8003C156.837 82.6847 155.974 83.127 154.823 83.127ZM154.677 76.9697C154.203 76.9697 153.805 77.1432 153.483 77.4902C153.162 77.833 152.963 78.3154 152.887 78.9375H156.327V78.8486C156.293 78.252 156.132 77.7907 155.845 77.4648C155.557 77.1348 155.168 76.9697 154.677 76.9697ZM164.846 82.1685C165.265 82.1685 165.631 82.0415 165.944 81.7876C166.257 81.5337 166.431 81.2163 166.464 80.8354H167.575C167.554 81.229 167.419 81.6035 167.169 81.959C166.919 82.3145 166.585 82.598 166.166 82.8096C165.751 83.0212 165.311 83.127 164.846 83.127C163.91 83.127 163.166 82.8159 162.611 82.1938C162.061 81.5675 161.786 80.7127 161.786 79.6294V79.4326C161.786 78.764 161.909 78.1694 162.154 77.6489C162.4 77.1284 162.751 76.7243 163.208 76.4365C163.669 76.1488 164.213 76.0049 164.839 76.0049C165.61 76.0049 166.249 76.2355 166.756 76.6968C167.268 77.158 167.541 77.7568 167.575 78.4932H166.464C166.431 78.0488 166.261 77.6849 165.957 77.4014C165.656 77.1136 165.284 76.9697 164.839 76.9697C164.243 76.9697 163.779 77.1855 163.449 77.6172C163.123 78.0446 162.96 78.6646 162.96 79.4771V79.6992C162.96 80.4906 163.123 81.0999 163.449 81.5273C163.775 81.9548 164.241 82.1685 164.846 82.1685ZM173.339 76.1318H174.513V83H173.339V77.9917L170.171 83H168.997V76.1318H170.171V81.1465L173.339 76.1318ZM179.153 82.1685C179.572 82.1685 179.938 82.0415 180.251 81.7876C180.565 81.5337 180.738 81.2163 180.772 80.8354H181.883C181.862 81.229 181.726 81.6035 181.477 81.959C181.227 82.3145 180.893 82.598 180.474 82.8096C180.059 83.0212 179.619 83.127 179.153 83.127C178.218 83.127 177.473 82.8159 176.919 82.1938C176.369 81.5675 176.094 80.7127 176.094 79.6294V79.4326C176.094 78.764 176.216 78.1694 176.462 77.6489C176.707 77.1284 177.059 76.7243 177.516 76.4365C177.977 76.1488 178.521 76.0049 179.147 76.0049C179.917 76.0049 180.556 76.2355 181.064 76.6968C181.576 77.158 181.849 77.7568 181.883 78.4932H180.772C180.738 78.0488 180.569 77.6849 180.264 77.4014C179.964 77.1136 179.591 76.9697 179.147 76.9697C178.55 76.9697 178.087 77.1855 177.757 77.6172C177.431 78.0446 177.268 78.6646 177.268 79.4771V79.6992C177.268 80.4906 177.431 81.0999 177.757 81.5273C178.083 81.9548 178.548 82.1685 179.153 82.1685ZM188.307 77.084H186.002V83H184.828V77.084H182.568V76.1318H188.307V77.084ZM191.792 83.127C190.861 83.127 190.103 82.8223 189.519 82.2129C188.935 81.5993 188.643 80.7804 188.643 79.7563V79.5405C188.643 78.8592 188.772 78.252 189.03 77.7188C189.293 77.1813 189.657 76.7624 190.122 76.4619C190.592 76.1572 191.1 76.0049 191.646 76.0049C192.538 76.0049 193.232 76.299 193.728 76.8872C194.223 77.4754 194.47 78.3175 194.47 79.4136V79.9023H189.817C189.834 80.5794 190.031 81.1274 190.408 81.5464C190.789 81.9611 191.271 82.1685 191.855 82.1685C192.27 82.1685 192.621 82.0838 192.909 81.9146C193.196 81.7453 193.448 81.521 193.664 81.2417L194.381 81.8003C193.806 82.6847 192.943 83.127 191.792 83.127ZM191.646 76.9697C191.172 76.9697 190.774 77.1432 190.452 77.4902C190.131 77.833 189.932 78.3154 189.855 78.9375H193.296V78.8486C193.262 78.252 193.101 77.7907 192.813 77.4648C192.526 77.1348 192.136 76.9697 191.646 76.9697ZM199.79 81.4448L202.125 76.1318H203.592V83H202.417V78.0044L200.196 83H199.383L197.117 77.8965V83H195.943V76.1318H197.466L199.79 81.4448ZM206.766 78.4995H208.549C209.328 78.508 209.944 78.7111 210.396 79.1089C210.849 79.5067 211.076 80.0462 211.076 80.7275C211.076 81.4131 210.843 81.9632 210.377 82.3779C209.912 82.7926 209.286 83 208.499 83H205.591V76.1318H206.766V78.4995ZM213.526 83H212.345V76.1318H213.526V83ZM206.766 79.458V82.0415H208.511C208.951 82.0415 209.292 81.9294 209.533 81.7051C209.774 81.4766 209.895 81.1655 209.895 80.772C209.895 80.3911 209.777 80.0801 209.54 79.8389C209.307 79.5934 208.979 79.4665 208.556 79.458H206.766ZM223.041 83C222.973 82.8646 222.918 82.6234 222.876 82.2764C222.33 82.8434 221.678 83.127 220.921 83.127C220.244 83.127 219.687 82.9365 219.251 82.5557C218.82 82.1706 218.604 81.6839 218.604 81.0957C218.604 80.3805 218.875 79.8262 219.417 79.4326C219.962 79.0348 220.728 78.8359 221.714 78.8359H222.857V78.2964C222.857 77.8859 222.734 77.5601 222.489 77.3188C222.243 77.0734 221.882 76.9507 221.403 76.9507C220.984 76.9507 220.633 77.0565 220.35 77.2681C220.066 77.4797 219.924 77.7357 219.924 78.0361H218.744C218.744 77.6934 218.864 77.3633 219.105 77.0459C219.351 76.7243 219.681 76.4704 220.096 76.2842C220.515 76.098 220.974 76.0049 221.473 76.0049C222.264 76.0049 222.884 76.2038 223.333 76.6016C223.782 76.9951 224.014 77.5389 224.031 78.2329V81.394C224.031 82.0246 224.112 82.526 224.272 82.8984V83H223.041ZM221.092 82.105C221.46 82.105 221.81 82.0098 222.14 81.8193C222.47 81.6289 222.709 81.3813 222.857 81.0767V79.6675H221.937C220.498 79.6675 219.778 80.0885 219.778 80.9307C219.778 81.2988 219.901 81.5866 220.146 81.7939C220.392 82.0013 220.707 82.105 221.092 82.105ZM231.483 83H230.309V80.0674H227.154V83H225.974V76.1318H227.154V79.1089H230.309V76.1318H231.483V83ZM237.615 83C237.548 82.8646 237.493 82.6234 237.45 82.2764C236.904 82.8434 236.253 83.127 235.495 83.127C234.818 83.127 234.262 82.9365 233.826 82.5557C233.394 82.1706 233.178 81.6839 233.178 81.0957C233.178 80.3805 233.449 79.8262 233.991 79.4326C234.537 79.0348 235.303 78.8359 236.289 78.8359H237.431V78.2964C237.431 77.8859 237.308 77.5601 237.063 77.3188C236.818 77.0734 236.456 76.9507 235.978 76.9507C235.559 76.9507 235.207 77.0565 234.924 77.2681C234.64 77.4797 234.499 77.7357 234.499 78.0361H233.318C233.318 77.6934 233.438 77.3633 233.68 77.0459C233.925 76.7243 234.255 76.4704 234.67 76.2842C235.089 76.098 235.548 76.0049 236.047 76.0049C236.839 76.0049 237.459 76.2038 237.907 76.6016C238.356 76.9951 238.589 77.5389 238.605 78.2329V81.394C238.605 82.0246 238.686 82.526 238.847 82.8984V83H237.615ZM235.667 82.105C236.035 82.105 236.384 82.0098 236.714 81.8193C237.044 81.6289 237.283 81.3813 237.431 81.0767V79.6675H236.511C235.072 79.6675 234.353 80.0885 234.353 80.9307C234.353 81.2988 234.475 81.5866 234.721 81.7939C234.966 82.0013 235.281 82.105 235.667 82.105ZM246.077 76.1318V83H244.896V77.103H242.56L242.42 79.6738C242.344 80.8545 242.145 81.6987 241.824 82.2065C241.506 82.7144 241.001 82.9788 240.307 83H239.837V81.9653L240.173 81.9399C240.554 81.8976 240.827 81.6776 240.992 81.2798C241.157 80.882 241.263 80.1457 241.31 79.0708L241.437 76.1318H246.077ZM252.405 76.1318H253.58V83H252.405V77.9917L249.238 83H248.063V76.1318H249.238V81.1465L252.405 76.1318ZM260.568 77.084H258.264V83H257.09V77.084H254.83V76.1318H260.568V77.084ZM266.154 76.1318H267.329V83H266.154V77.9917L262.987 83H261.812V76.1318H262.987V81.1465L266.154 76.1318ZM271.353 80.0737H270.496V83H269.315V76.1318H270.496V79.0391H271.264L273.575 76.1318H274.997L272.28 79.4326L275.225 83H273.733L271.353 80.0737ZM280.678 76.1318H281.852V83H280.678V77.9917L277.51 83H276.336V76.1318H277.51V81.1465L280.678 76.1318Z" fill="#333333"/>
<path d="M93.9393 241.061C94.5251 241.646 95.4749 241.646 96.0607 241.061L105.607 231.515C106.192 230.929 106.192 229.979 105.607 229.393C105.021 228.808 104.071 228.808 103.485 229.393L95 237.879L86.5147 229.393C85.9289 228.808 84.9792 228.808 84.3934 229.393C83.8076 229.979 83.8076 230.929 84.3934 231.515L93.9393 241.061ZM96.0607 104.939C95.4749 104.354 94.5251 104.354 93.9393 104.939L84.3934 114.485C83.8076 115.071 83.8076 116.021 84.3934 116.607C84.9792 117.192 85.9289 117.192 86.5147 116.607L95 108.121L103.485 116.607C104.071 117.192 105.021 117.192 105.607 116.607C106.192 116.021 106.192 115.071 105.607 114.485L96.0607 104.939ZM96.5 240L96.5 106L93.5 106L93.5 240L96.5 240Z" fill="#333333"/>
<path d="M185.939 241.061C186.525 241.646 187.475 241.646 188.061 241.061L197.607 231.515C198.192 230.929 198.192 229.979 197.607 229.393C197.021 228.808 196.071 228.808 195.485 229.393L187 237.879L178.515 229.393C177.929 228.808 176.979 228.808 176.393 229.393C175.808 229.979 175.808 230.929 176.393 231.515L185.939 241.061ZM188.061 104.939C187.475 104.354 186.525 104.354 185.939 104.939L176.393 114.485C175.808 115.071 175.808 116.021 176.393 116.607C176.979 117.192 177.929 117.192 178.515 116.607L187 108.121L195.485 116.607C196.071 117.192 197.021 117.192 197.607 116.607C198.192 116.021 198.192 115.071 197.607 114.485L188.061 104.939ZM188.5 240L188.5 106L185.5 106L185.5 240L188.5 240Z" fill="#333333"/>
<path d="M277.939 241.061C278.525 241.646 279.475 241.646 280.061 241.061L289.607 231.515C290.192 230.929 290.192 229.979 289.607 229.393C289.021 228.808 288.071 228.808 287.485 229.393L279 237.879L270.515 229.393C269.929 228.808 268.979 228.808 268.393 229.393C267.808 229.979 267.808 230.929 268.393 231.515L277.939 241.061ZM280.061 104.939C279.475 104.354 278.525 104.354 277.939 104.939L268.393 114.485C267.808 115.071 267.808 116.021 268.393 116.607C268.979 117.192 269.929 117.192 270.515 116.607L279 108.121L287.485 116.607C288.071 117.192 289.021 117.192 289.607 116.607C290.192 116.021 290.192 115.071 289.607 114.485L280.061 104.939ZM280.5 240L280.5 106L277.5 106L277.5 240L280.5 240Z" fill="#333333"/>
<g filter="url(#filter3_d_35_2)">
<rect x="59" y="248" width="120" height="120" rx="32" fill="white"/>
</g>
<g filter="url(#filter4_d_35_2)">
<rect x="196" y="248" width="120" height="120" rx="32" fill="white"/>
</g>
<path d="M97.248 302.402H93.0781L92.1416 305H90.7881L94.5889 295.047H95.7373L99.5449 305H98.1982L97.248 302.402ZM93.4746 301.322H96.8584L95.1631 296.667L93.4746 301.322ZM108.486 305H107.167V296.127H102.259V305H100.946V295.047H108.486V305ZM117.154 295.047H118.467V305H117.154V297.33L112.253 305H110.934V295.047H112.253V302.717L117.154 295.047ZM124.072 303.968L124.51 303.428C125.002 302.79 125.282 301.833 125.351 300.557L125.467 297.604H130.231V303.968H131.182V307.174H129.917V305H124.756V307.174H123.491L123.498 303.968H124.072ZM125.569 303.968H128.967V298.772H126.69L126.615 300.536C126.538 302.008 126.189 303.152 125.569 303.968ZM138.646 297.604V305H137.375V298.649H134.859L134.709 301.418C134.627 302.689 134.413 303.599 134.066 304.146C133.725 304.692 133.18 304.977 132.433 305H131.927V303.886L132.289 303.858C132.699 303.813 132.993 303.576 133.171 303.147C133.349 302.719 133.463 301.926 133.513 300.769L133.649 297.604H138.646ZM146.33 297.604V305H145.059V302.122H143.151L141.408 305H140.041L141.9 301.931C141.426 301.757 141.062 301.491 140.807 301.131C140.556 300.766 140.431 300.342 140.431 299.859C140.431 299.185 140.684 298.643 141.189 298.232C141.695 297.818 142.372 297.608 143.22 297.604H146.33ZM141.702 299.873C141.702 300.233 141.825 300.525 142.071 300.748C142.317 300.967 142.643 301.078 143.049 301.083H145.059V298.629H143.24C142.771 298.629 142.397 298.745 142.119 298.978C141.841 299.205 141.702 299.504 141.702 299.873ZM86.9531 313.604H88.2178V321H86.9531V315.606L83.542 321H82.2773V313.604H83.542V319.004L86.9531 313.604ZM96.291 321H95.0264V317.842H91.6289V321H90.3574V313.604H91.6289V316.81H95.0264V313.604H96.291V321ZM103.824 314.629H101.343V321H100.078V314.629H97.6445V313.604H103.824V314.629ZM107.577 321.137C106.575 321.137 105.759 320.809 105.13 320.152C104.501 319.492 104.187 318.61 104.187 317.507V317.274C104.187 316.541 104.326 315.887 104.604 315.312C104.886 314.734 105.278 314.283 105.779 313.959C106.285 313.631 106.832 313.467 107.42 313.467C108.382 313.467 109.129 313.784 109.662 314.417C110.195 315.05 110.462 315.957 110.462 317.138V317.664H105.451C105.469 318.393 105.681 318.983 106.087 319.435C106.497 319.881 107.017 320.104 107.646 320.104C108.092 320.104 108.47 320.013 108.78 319.831C109.09 319.649 109.361 319.407 109.594 319.106L110.366 319.708C109.746 320.66 108.817 321.137 107.577 321.137ZM107.42 314.506C106.91 314.506 106.481 314.693 106.135 315.066C105.788 315.436 105.574 315.955 105.492 316.625H109.197V316.529C109.161 315.887 108.988 315.39 108.678 315.039C108.368 314.684 107.949 314.506 107.42 314.506ZM116.71 314.649H113.299V321H112.027V313.604H116.71V314.649ZM124.059 317.384C124.059 318.509 123.801 319.416 123.286 320.104C122.771 320.793 122.074 321.137 121.194 321.137C120.297 321.137 119.59 320.852 119.075 320.282V323.844H117.811V313.604H118.966L119.027 314.424C119.542 313.786 120.258 313.467 121.174 313.467C122.062 313.467 122.764 313.802 123.279 314.472C123.799 315.142 124.059 316.074 124.059 317.268V317.384ZM122.794 317.24C122.794 316.406 122.616 315.748 122.261 315.265C121.905 314.782 121.418 314.54 120.798 314.54C120.032 314.54 119.458 314.88 119.075 315.559V319.093C119.453 319.767 120.032 320.104 120.812 320.104C121.418 320.104 121.898 319.865 122.254 319.387C122.614 318.904 122.794 318.188 122.794 317.24ZM130.238 321C130.165 320.854 130.106 320.594 130.061 320.221C129.473 320.831 128.771 321.137 127.955 321.137C127.226 321.137 126.627 320.932 126.157 320.521C125.692 320.107 125.46 319.583 125.46 318.949C125.46 318.179 125.752 317.582 126.335 317.158C126.923 316.73 127.748 316.516 128.81 316.516H130.04V315.935C130.04 315.493 129.908 315.142 129.644 314.882C129.379 314.618 128.99 314.485 128.475 314.485C128.023 314.485 127.645 314.599 127.34 314.827C127.035 315.055 126.882 315.331 126.882 315.654H125.61C125.61 315.285 125.74 314.93 126 314.588C126.264 314.242 126.62 313.968 127.066 313.768C127.518 313.567 128.012 313.467 128.55 313.467C129.402 313.467 130.07 313.681 130.553 314.109C131.036 314.533 131.286 315.119 131.305 315.866V319.271C131.305 319.95 131.391 320.49 131.564 320.891V321H130.238ZM128.14 320.036C128.536 320.036 128.912 319.934 129.268 319.729C129.623 319.523 129.881 319.257 130.04 318.929V317.411H129.049C127.499 317.411 126.725 317.865 126.725 318.771C126.725 319.168 126.857 319.478 127.121 319.701C127.385 319.924 127.725 320.036 128.14 320.036ZM133.396 313.604H134.668V319.968H138.072V313.604H139.337V319.968H140.219L140.096 323.194H138.961V321H133.396V313.604ZM146.371 313.604H147.636V321H146.371V315.606L142.96 321H141.695V313.604H142.96V319.004L146.371 313.604ZM154.451 313.604H155.716V321H154.451V315.606L151.04 321H149.775V313.604H151.04V319.004L154.451 313.604Z" fill="#333333"/>
<path d="M221.308 295.047L224.562 303.168L227.815 295.047H229.518V305H228.205V301.124L228.328 296.94L225.061 305H224.056L220.795 296.961L220.925 301.124V305H219.612V295.047H221.308ZM231.302 301.233C231.302 300.509 231.443 299.857 231.726 299.278C232.013 298.7 232.409 298.253 232.915 297.938C233.425 297.624 234.007 297.467 234.658 297.467C235.665 297.467 236.479 297.815 237.099 298.513C237.723 299.21 238.035 300.137 238.035 301.295V301.384C238.035 302.104 237.896 302.751 237.618 303.325C237.345 303.895 236.951 304.339 236.436 304.658C235.925 304.977 235.337 305.137 234.672 305.137C233.669 305.137 232.856 304.788 232.231 304.091C231.612 303.394 231.302 302.471 231.302 301.322V301.233ZM232.573 301.384C232.573 302.204 232.762 302.863 233.141 303.359C233.523 303.856 234.034 304.104 234.672 304.104C235.314 304.104 235.825 303.854 236.203 303.353C236.581 302.847 236.771 302.14 236.771 301.233C236.771 300.422 236.577 299.766 236.189 299.265C235.807 298.759 235.296 298.506 234.658 298.506C234.034 298.506 233.53 298.754 233.147 299.251C232.765 299.748 232.573 300.459 232.573 301.384ZM242.868 298.027C243.798 298.027 244.541 298.34 245.097 298.964C245.657 299.584 245.938 300.402 245.938 301.418V301.534C245.938 302.231 245.803 302.856 245.534 303.407C245.265 303.954 244.878 304.38 244.372 304.686C243.871 304.986 243.292 305.137 242.636 305.137C241.642 305.137 240.842 304.806 240.236 304.146C239.63 303.48 239.327 302.589 239.327 301.473V300.857C239.327 299.303 239.614 298.068 240.188 297.152C240.767 296.236 241.619 295.678 242.745 295.478C243.383 295.364 243.814 295.225 244.037 295.061C244.26 294.896 244.372 294.671 244.372 294.384H245.411C245.411 294.953 245.281 295.398 245.021 295.717C244.766 296.036 244.356 296.261 243.791 296.394L242.848 296.605C242.096 296.783 241.531 297.084 241.152 297.508C240.779 297.927 240.535 298.488 240.421 299.189C241.091 298.415 241.907 298.027 242.868 298.027ZM242.622 299.066C242.002 299.066 241.51 299.276 241.146 299.695C240.781 300.11 240.599 300.687 240.599 301.425V301.534C240.599 302.327 240.781 302.956 241.146 303.421C241.515 303.881 242.011 304.111 242.636 304.111C243.265 304.111 243.761 303.879 244.126 303.414C244.491 302.949 244.673 302.27 244.673 301.377C244.673 300.68 244.488 300.121 244.119 299.702C243.755 299.278 243.256 299.066 242.622 299.066ZM252.021 297.604H253.286V305H252.021V299.606L248.61 305H247.346V297.604H248.61V303.004L252.021 297.604ZM261.38 297.604V305H260.108V298.649H257.593L257.442 301.418C257.36 302.689 257.146 303.599 256.8 304.146C256.458 304.692 255.913 304.977 255.166 305H254.66V303.886L255.022 303.858C255.433 303.813 255.727 303.576 255.904 303.147C256.082 302.719 256.196 301.926 256.246 300.769L256.383 297.604H261.38ZM264.791 300.153H266.712C267.55 300.162 268.214 300.381 268.701 300.81C269.189 301.238 269.433 301.819 269.433 302.553C269.433 303.291 269.182 303.883 268.681 304.33C268.179 304.777 267.505 305 266.657 305H263.526V297.604H264.791V300.153ZM264.791 301.186V303.968H266.671C267.145 303.968 267.512 303.847 267.771 303.605C268.031 303.359 268.161 303.024 268.161 302.601C268.161 302.19 268.034 301.855 267.778 301.596C267.528 301.331 267.174 301.195 266.719 301.186H264.791ZM277.055 305H275.79V301.842H272.393V305H271.121V297.604H272.393V300.81H275.79V297.604H277.055V305ZM278.757 301.233C278.757 300.509 278.898 299.857 279.181 299.278C279.468 298.7 279.864 298.253 280.37 297.938C280.881 297.624 281.462 297.467 282.113 297.467C283.12 297.467 283.934 297.815 284.554 298.513C285.178 299.21 285.49 300.137 285.49 301.295V301.384C285.49 302.104 285.351 302.751 285.073 303.325C284.8 303.895 284.406 304.339 283.891 304.658C283.38 304.977 282.792 305.137 282.127 305.137C281.124 305.137 280.311 304.788 279.687 304.091C279.067 303.394 278.757 302.471 278.757 301.322V301.233ZM280.028 301.384C280.028 302.204 280.217 302.863 280.596 303.359C280.979 303.856 281.489 304.104 282.127 304.104C282.77 304.104 283.28 303.854 283.658 303.353C284.036 302.847 284.226 302.14 284.226 301.233C284.226 300.422 284.032 299.766 283.645 299.265C283.262 298.759 282.751 298.506 282.113 298.506C281.489 298.506 280.985 298.754 280.603 299.251C280.22 299.748 280.028 300.459 280.028 301.384ZM290.146 305.137C289.143 305.137 288.327 304.809 287.698 304.152C287.069 303.492 286.755 302.61 286.755 301.507V301.274C286.755 300.541 286.894 299.887 287.172 299.312C287.454 298.734 287.846 298.283 288.348 297.959C288.854 297.631 289.4 297.467 289.988 297.467C290.95 297.467 291.697 297.784 292.23 298.417C292.764 299.05 293.03 299.957 293.03 301.138V301.664H288.02C288.038 302.393 288.25 302.983 288.655 303.435C289.065 303.881 289.585 304.104 290.214 304.104C290.66 304.104 291.039 304.013 291.349 303.831C291.659 303.649 291.93 303.407 292.162 303.106L292.935 303.708C292.315 304.66 291.385 305.137 290.146 305.137ZM289.988 298.506C289.478 298.506 289.049 298.693 288.703 299.066C288.357 299.436 288.143 299.955 288.061 300.625H291.766V300.529C291.729 299.887 291.556 299.39 291.246 299.039C290.936 298.684 290.517 298.506 289.988 298.506ZM222.237 321H220.973V314.649H217.568V321H216.297V313.604H222.237V321ZM230.516 317.384C230.516 318.509 230.258 319.416 229.743 320.104C229.228 320.793 228.531 321.137 227.651 321.137C226.754 321.137 226.047 320.852 225.532 320.282V323.844H224.268V313.604H225.423L225.484 314.424C225.999 313.786 226.715 313.467 227.631 313.467C228.52 313.467 229.221 313.802 229.736 314.472C230.256 315.142 230.516 316.074 230.516 317.268V317.384ZM229.251 317.24C229.251 316.406 229.073 315.748 228.718 315.265C228.362 314.782 227.875 314.54 227.255 314.54C226.489 314.54 225.915 314.88 225.532 315.559V319.093C225.91 319.767 226.489 320.104 227.269 320.104C227.875 320.104 228.355 319.865 228.711 319.387C229.071 318.904 229.251 318.188 229.251 317.24ZM236.914 313.604H238.179V321H236.914V315.606L233.503 321H232.238V313.604H233.503V319.004L236.914 313.604ZM246.272 313.604V321H245.001V314.649H242.485L242.335 317.418C242.253 318.689 242.039 319.599 241.692 320.146C241.351 320.692 240.806 320.977 240.059 321H239.553V319.886L239.915 319.858C240.325 319.813 240.619 319.576 240.797 319.147C240.975 318.719 241.089 317.926 241.139 316.769L241.275 313.604H246.272ZM247.968 317.233C247.968 316.509 248.109 315.857 248.392 315.278C248.679 314.7 249.075 314.253 249.581 313.938C250.091 313.624 250.673 313.467 251.324 313.467C252.331 313.467 253.145 313.815 253.765 314.513C254.389 315.21 254.701 316.137 254.701 317.295V317.384C254.701 318.104 254.562 318.751 254.284 319.325C254.011 319.895 253.617 320.339 253.102 320.658C252.591 320.977 252.003 321.137 251.338 321.137C250.335 321.137 249.522 320.788 248.897 320.091C248.278 319.394 247.968 318.471 247.968 317.322V317.233ZM249.239 317.384C249.239 318.204 249.428 318.863 249.807 319.359C250.189 319.856 250.7 320.104 251.338 320.104C251.98 320.104 252.491 319.854 252.869 319.353C253.247 318.847 253.437 318.14 253.437 317.233C253.437 316.422 253.243 315.766 252.855 315.265C252.473 314.759 251.962 314.506 251.324 314.506C250.7 314.506 250.196 314.754 249.813 315.251C249.431 315.748 249.239 316.459 249.239 317.384ZM262.036 317.787H261.147V321H259.883V317.787H258.994L256.923 321H255.323L257.969 317.172L255.576 313.604H257.107L259.015 316.666H259.883V313.604H261.147V316.666H262.009L263.93 313.604H265.461L263.062 317.179L265.707 321H264.107L262.036 317.787ZM269.788 321.137C268.785 321.137 267.97 320.809 267.341 320.152C266.712 319.492 266.397 318.61 266.397 317.507V317.274C266.397 316.541 266.536 315.887 266.814 315.312C267.097 314.734 267.489 314.283 267.99 313.959C268.496 313.631 269.043 313.467 269.631 313.467C270.592 313.467 271.34 313.784 271.873 314.417C272.406 315.05 272.673 315.957 272.673 317.138V317.664H267.662C267.68 318.393 267.892 318.983 268.298 319.435C268.708 319.881 269.228 320.104 269.856 320.104C270.303 320.104 270.681 320.013 270.991 319.831C271.301 319.649 271.572 319.407 271.805 319.106L272.577 319.708C271.957 320.66 271.028 321.137 269.788 321.137ZM269.631 314.506C269.12 314.506 268.692 314.693 268.346 315.066C267.999 315.436 267.785 315.955 267.703 316.625H271.408V316.529C271.372 315.887 271.199 315.39 270.889 315.039C270.579 314.684 270.16 314.506 269.631 314.506ZM280.186 321H278.921V317.842H275.523V321H274.252V313.604H275.523V316.81H278.921V313.604H280.186V321ZM287.008 313.604H288.272V321H287.008V315.606L283.597 321H282.332V313.604H283.597V319.004L287.008 313.604ZM293.372 321.137C292.369 321.137 291.554 320.809 290.925 320.152C290.296 319.492 289.981 318.61 289.981 317.507V317.274C289.981 316.541 290.12 315.887 290.398 315.312C290.681 314.734 291.073 314.283 291.574 313.959C292.08 313.631 292.627 313.467 293.215 313.467C294.176 313.467 294.924 313.784 295.457 314.417C295.99 315.05 296.257 315.957 296.257 317.138V317.664H291.246C291.264 318.393 291.476 318.983 291.882 319.435C292.292 319.881 292.812 320.104 293.44 320.104C293.887 320.104 294.265 320.013 294.575 319.831C294.885 319.649 295.156 319.407 295.389 319.106L296.161 319.708C295.541 320.66 294.612 321.137 293.372 321.137ZM293.215 314.506C292.704 314.506 292.276 314.693 291.93 315.066C291.583 315.436 291.369 315.955 291.287 316.625H294.992V316.529C294.956 315.887 294.783 315.39 294.473 315.039C294.163 314.684 293.743 314.506 293.215 314.506Z" fill="#333333"/>
<path d="M199.574 173.549H197.57V177H196.439V168.469H199.264C200.225 168.469 200.963 168.688 201.479 169.125C201.998 169.562 202.258 170.199 202.258 171.035C202.258 171.566 202.113 172.029 201.824 172.424C201.539 172.818 201.141 173.113 200.629 173.309L202.633 176.93V177H201.426L199.574 173.549ZM197.57 172.629H199.299C199.857 172.629 200.301 172.484 200.629 172.195C200.961 171.906 201.127 171.52 201.127 171.035C201.127 170.508 200.969 170.104 200.652 169.822C200.34 169.541 199.887 169.398 199.293 169.395H197.57V172.629ZM208.662 173.057H204.965V176.08H209.26V177H203.84V168.469H209.201V169.395H204.965V172.137H208.662V173.057ZM213.174 173.197C212.209 172.92 211.506 172.58 211.064 172.178C210.627 171.771 210.408 171.271 210.408 170.678C210.408 170.006 210.676 169.451 211.211 169.014C211.75 168.572 212.449 168.352 213.309 168.352C213.895 168.352 214.416 168.465 214.873 168.691C215.334 168.918 215.689 169.23 215.939 169.629C216.193 170.027 216.32 170.463 216.32 170.936H215.189C215.189 170.42 215.025 170.016 214.697 169.723C214.369 169.426 213.906 169.277 213.309 169.277C212.754 169.277 212.32 169.4 212.008 169.646C211.699 169.889 211.545 170.227 211.545 170.66C211.545 171.008 211.691 171.303 211.984 171.545C212.281 171.783 212.783 172.002 213.49 172.201C214.201 172.4 214.756 172.621 215.154 172.863C215.557 173.102 215.854 173.381 216.045 173.701C216.24 174.021 216.338 174.398 216.338 174.832C216.338 175.523 216.068 176.078 215.529 176.496C214.99 176.91 214.27 177.117 213.367 177.117C212.781 177.117 212.234 177.006 211.727 176.783C211.219 176.557 210.826 176.248 210.549 175.857C210.275 175.467 210.139 175.023 210.139 174.527H211.27C211.27 175.043 211.459 175.451 211.838 175.752C212.221 176.049 212.73 176.197 213.367 176.197C213.961 176.197 214.416 176.076 214.732 175.834C215.049 175.592 215.207 175.262 215.207 174.844C215.207 174.426 215.061 174.104 214.768 173.877C214.475 173.646 213.943 173.42 213.174 173.197ZM223.68 169.395H220.938V177H219.818V169.395H217.082V168.469H223.68V169.395ZM224.992 177.732H224.061L227.623 168.469H228.549L224.992 177.732ZM232.404 173.197C231.439 172.92 230.736 172.58 230.295 172.178C229.857 171.771 229.639 171.271 229.639 170.678C229.639 170.006 229.906 169.451 230.441 169.014C230.98 168.572 231.68 168.352 232.539 168.352C233.125 168.352 233.646 168.465 234.104 168.691C234.564 168.918 234.92 169.23 235.17 169.629C235.424 170.027 235.551 170.463 235.551 170.936H234.42C234.42 170.42 234.256 170.016 233.928 169.723C233.6 169.426 233.137 169.277 232.539 169.277C231.984 169.277 231.551 169.4 231.238 169.646C230.93 169.889 230.775 170.227 230.775 170.66C230.775 171.008 230.922 171.303 231.215 171.545C231.512 171.783 232.014 172.002 232.721 172.201C233.432 172.4 233.986 172.621 234.385 172.863C234.787 173.102 235.084 173.381 235.275 173.701C235.471 174.021 235.568 174.398 235.568 174.832C235.568 175.523 235.299 176.078 234.76 176.496C234.221 176.91 233.5 177.117 232.598 177.117C232.012 177.117 231.465 177.006 230.957 176.783C230.449 176.557 230.057 176.248 229.779 175.857C229.506 175.467 229.369 175.023 229.369 174.527H230.5C230.5 175.043 230.689 175.451 231.068 175.752C231.451 176.049 231.961 176.197 232.598 176.197C233.191 176.197 233.646 176.076 233.963 175.834C234.279 175.592 234.438 175.262 234.438 174.844C234.438 174.426 234.291 174.104 233.998 173.877C233.705 173.646 233.174 173.42 232.404 173.197ZM243.578 173.01C243.578 173.846 243.438 174.576 243.156 175.201C242.875 175.822 242.477 176.297 241.961 176.625C241.445 176.953 240.844 177.117 240.156 177.117C239.484 177.117 238.889 176.953 238.369 176.625C237.85 176.293 237.445 175.822 237.156 175.213C236.871 174.6 236.725 173.891 236.717 173.086V172.471C236.717 171.65 236.859 170.926 237.145 170.297C237.43 169.668 237.832 169.188 238.352 168.855C238.875 168.52 239.473 168.352 240.145 168.352C240.828 168.352 241.43 168.518 241.949 168.85C242.473 169.178 242.875 169.656 243.156 170.285C243.438 170.91 243.578 171.639 243.578 172.471V173.01ZM242.459 172.459C242.459 171.447 242.256 170.672 241.85 170.133C241.443 169.59 240.875 169.318 240.145 169.318C239.434 169.318 238.873 169.59 238.463 170.133C238.057 170.672 237.848 171.422 237.836 172.383V173.01C237.836 173.99 238.041 174.762 238.451 175.324C238.865 175.883 239.434 176.162 240.156 176.162C240.883 176.162 241.445 175.898 241.844 175.371C242.242 174.84 242.447 174.08 242.459 173.092V172.459ZM249.848 174.773H246.273L245.471 177H244.311L247.568 168.469H248.553L251.816 177H250.662L249.848 174.773ZM246.613 173.848H249.514L248.061 169.857L246.613 173.848ZM254.09 173.66V177H252.965V168.469H256.111C257.045 168.469 257.775 168.707 258.303 169.184C258.834 169.66 259.1 170.291 259.1 171.076C259.1 171.904 258.84 172.543 258.32 172.992C257.805 173.438 257.064 173.66 256.1 173.66H254.09ZM254.09 172.74H256.111C256.713 172.74 257.174 172.6 257.494 172.318C257.814 172.033 257.975 171.623 257.975 171.088C257.975 170.58 257.814 170.174 257.494 169.869C257.174 169.564 256.734 169.406 256.176 169.395H254.09V172.74Z" fill="#333333"/>
<path d="M107.574 173.549H105.57V177H104.439V168.469H107.264C108.225 168.469 108.963 168.688 109.479 169.125C109.998 169.562 110.258 170.199 110.258 171.035C110.258 171.566 110.113 172.029 109.824 172.424C109.539 172.818 109.141 173.113 108.629 173.309L110.633 176.93V177H109.426L107.574 173.549ZM105.57 172.629H107.299C107.857 172.629 108.301 172.484 108.629 172.195C108.961 171.906 109.127 171.52 109.127 171.035C109.127 170.508 108.969 170.104 108.652 169.822C108.34 169.541 107.887 169.398 107.293 169.395H105.57V172.629ZM116.662 173.057H112.965V176.08H117.26V177H111.84V168.469H117.201V169.395H112.965V172.137H116.662V173.057ZM121.174 173.197C120.209 172.92 119.506 172.58 119.064 172.178C118.627 171.771 118.408 171.271 118.408 170.678C118.408 170.006 118.676 169.451 119.211 169.014C119.75 168.572 120.449 168.352 121.309 168.352C121.895 168.352 122.416 168.465 122.873 168.691C123.334 168.918 123.689 169.23 123.939 169.629C124.193 170.027 124.32 170.463 124.32 170.936H123.189C123.189 170.42 123.025 170.016 122.697 169.723C122.369 169.426 121.906 169.277 121.309 169.277C120.754 169.277 120.32 169.4 120.008 169.646C119.699 169.889 119.545 170.227 119.545 170.66C119.545 171.008 119.691 171.303 119.984 171.545C120.281 171.783 120.783 172.002 121.49 172.201C122.201 172.4 122.756 172.621 123.154 172.863C123.557 173.102 123.854 173.381 124.045 173.701C124.24 174.021 124.338 174.398 124.338 174.832C124.338 175.523 124.068 176.078 123.529 176.496C122.99 176.91 122.27 177.117 121.367 177.117C120.781 177.117 120.234 177.006 119.727 176.783C119.219 176.557 118.826 176.248 118.549 175.857C118.275 175.467 118.139 175.023 118.139 174.527H119.27C119.27 175.043 119.459 175.451 119.838 175.752C120.221 176.049 120.73 176.197 121.367 176.197C121.961 176.197 122.416 176.076 122.732 175.834C123.049 175.592 123.207 175.262 123.207 174.844C123.207 174.426 123.061 174.104 122.768 173.877C122.475 173.646 121.943 173.42 121.174 173.197ZM131.68 169.395H128.938V177H127.818V169.395H125.082V168.469H131.68V169.395ZM132.992 177.732H132.061L135.623 168.469H136.549L132.992 177.732ZM140.404 173.197C139.439 172.92 138.736 172.58 138.295 172.178C137.857 171.771 137.639 171.271 137.639 170.678C137.639 170.006 137.906 169.451 138.441 169.014C138.98 168.572 139.68 168.352 140.539 168.352C141.125 168.352 141.646 168.465 142.104 168.691C142.564 168.918 142.92 169.23 143.17 169.629C143.424 170.027 143.551 170.463 143.551 170.936H142.42C142.42 170.42 142.256 170.016 141.928 169.723C141.6 169.426 141.137 169.277 140.539 169.277C139.984 169.277 139.551 169.4 139.238 169.646C138.93 169.889 138.775 170.227 138.775 170.66C138.775 171.008 138.922 171.303 139.215 171.545C139.512 171.783 140.014 172.002 140.721 172.201C141.432 172.4 141.986 172.621 142.385 172.863C142.787 173.102 143.084 173.381 143.275 173.701C143.471 174.021 143.568 174.398 143.568 174.832C143.568 175.523 143.299 176.078 142.76 176.496C142.221 176.91 141.5 177.117 140.598 177.117C140.012 177.117 139.465 177.006 138.957 176.783C138.449 176.557 138.057 176.248 137.779 175.857C137.506 175.467 137.369 175.023 137.369 174.527H138.5C138.5 175.043 138.689 175.451 139.068 175.752C139.451 176.049 139.961 176.197 140.598 176.197C141.191 176.197 141.646 176.076 141.963 175.834C142.279 175.592 142.438 175.262 142.438 174.844C142.438 174.426 142.291 174.104 141.998 173.877C141.705 173.646 141.174 173.42 140.404 173.197ZM151.578 173.01C151.578 173.846 151.438 174.576 151.156 175.201C150.875 175.822 150.477 176.297 149.961 176.625C149.445 176.953 148.844 177.117 148.156 177.117C147.484 177.117 146.889 176.953 146.369 176.625C145.85 176.293 145.445 175.822 145.156 175.213C144.871 174.6 144.725 173.891 144.717 173.086V172.471C144.717 171.65 144.859 170.926 145.145 170.297C145.43 169.668 145.832 169.188 146.352 168.855C146.875 168.52 147.473 168.352 148.145 168.352C148.828 168.352 149.43 168.518 149.949 168.85C150.473 169.178 150.875 169.656 151.156 170.285C151.438 170.91 151.578 171.639 151.578 172.471V173.01ZM150.459 172.459C150.459 171.447 150.256 170.672 149.85 170.133C149.443 169.59 148.875 169.318 148.145 169.318C147.434 169.318 146.873 169.59 146.463 170.133C146.057 170.672 145.848 171.422 145.836 172.383V173.01C145.836 173.99 146.041 174.762 146.451 175.324C146.865 175.883 147.434 176.162 148.156 176.162C148.883 176.162 149.445 175.898 149.844 175.371C150.242 174.84 150.447 174.08 150.459 173.092V172.459ZM157.848 174.773H154.273L153.471 177H152.311L155.568 168.469H156.553L159.816 177H158.662L157.848 174.773ZM154.613 173.848H157.514L156.061 169.857L154.613 173.848ZM162.09 173.66V177H160.965V168.469H164.111C165.045 168.469 165.775 168.707 166.303 169.184C166.834 169.66 167.1 170.291 167.1 171.076C167.1 171.904 166.84 172.543 166.32 172.992C165.805 173.438 165.064 173.66 164.1 173.66H162.09ZM162.09 172.74H164.111C164.713 172.74 165.174 172.6 165.494 172.318C165.814 172.033 165.975 171.623 165.975 171.088C165.975 170.58 165.814 170.174 165.494 169.869C165.174 169.564 164.734 169.406 164.176 169.395H162.09V172.74Z" fill="#333333"/>
<path d="M291.574 173.549H289.57V177H288.439V168.469H291.264C292.225 168.469 292.963 168.688 293.479 169.125C293.998 169.562 294.258 170.199 294.258 171.035C294.258 171.566 294.113 172.029 293.824 172.424C293.539 172.818 293.141 173.113 292.629 173.309L294.633 176.93V177H293.426L291.574 173.549ZM289.57 172.629H291.299C291.857 172.629 292.301 172.484 292.629 172.195C292.961 171.906 293.127 171.52 293.127 171.035C293.127 170.508 292.969 170.104 292.652 169.822C292.34 169.541 291.887 169.398 291.293 169.395H289.57V172.629ZM300.662 173.057H296.965V176.08H301.26V177H295.84V168.469H301.201V169.395H296.965V172.137H300.662V173.057ZM305.174 173.197C304.209 172.92 303.506 172.58 303.064 172.178C302.627 171.771 302.408 171.271 302.408 170.678C302.408 170.006 302.676 169.451 303.211 169.014C303.75 168.572 304.449 168.352 305.309 168.352C305.895 168.352 306.416 168.465 306.873 168.691C307.334 168.918 307.689 169.23 307.939 169.629C308.193 170.027 308.32 170.463 308.32 170.936H307.189C307.189 170.42 307.025 170.016 306.697 169.723C306.369 169.426 305.906 169.277 305.309 169.277C304.754 169.277 304.32 169.4 304.008 169.646C303.699 169.889 303.545 170.227 303.545 170.66C303.545 171.008 303.691 171.303 303.984 171.545C304.281 171.783 304.783 172.002 305.49 172.201C306.201 172.4 306.756 172.621 307.154 172.863C307.557 173.102 307.854 173.381 308.045 173.701C308.24 174.021 308.338 174.398 308.338 174.832C308.338 175.523 308.068 176.078 307.529 176.496C306.99 176.91 306.27 177.117 305.367 177.117C304.781 177.117 304.234 177.006 303.727 176.783C303.219 176.557 302.826 176.248 302.549 175.857C302.275 175.467 302.139 175.023 302.139 174.527H303.27C303.27 175.043 303.459 175.451 303.838 175.752C304.221 176.049 304.73 176.197 305.367 176.197C305.961 176.197 306.416 176.076 306.732 175.834C307.049 175.592 307.207 175.262 307.207 174.844C307.207 174.426 307.061 174.104 306.768 173.877C306.475 173.646 305.943 173.42 305.174 173.197ZM315.68 169.395H312.938V177H311.818V169.395H309.082V168.469H315.68V169.395ZM316.992 177.732H316.061L319.623 168.469H320.549L316.992 177.732ZM324.404 173.197C323.439 172.92 322.736 172.58 322.295 172.178C321.857 171.771 321.639 171.271 321.639 170.678C321.639 170.006 321.906 169.451 322.441 169.014C322.98 168.572 323.68 168.352 324.539 168.352C325.125 168.352 325.646 168.465 326.104 168.691C326.564 168.918 326.92 169.23 327.17 169.629C327.424 170.027 327.551 170.463 327.551 170.936H326.42C326.42 170.42 326.256 170.016 325.928 169.723C325.6 169.426 325.137 169.277 324.539 169.277C323.984 169.277 323.551 169.4 323.238 169.646C322.93 169.889 322.775 170.227 322.775 170.66C322.775 171.008 322.922 171.303 323.215 171.545C323.512 171.783 324.014 172.002 324.721 172.201C325.432 172.4 325.986 172.621 326.385 172.863C326.787 173.102 327.084 173.381 327.275 173.701C327.471 174.021 327.568 174.398 327.568 174.832C327.568 175.523 327.299 176.078 326.76 176.496C326.221 176.91 325.5 177.117 324.598 177.117C324.012 177.117 323.465 177.006 322.957 176.783C322.449 176.557 322.057 176.248 321.779 175.857C321.506 175.467 321.369 175.023 321.369 174.527H322.5C322.5 175.043 322.689 175.451 323.068 175.752C323.451 176.049 323.961 176.197 324.598 176.197C325.191 176.197 325.646 176.076 325.963 175.834C326.279 175.592 326.438 175.262 326.438 174.844C326.438 174.426 326.291 174.104 325.998 173.877C325.705 173.646 325.174 173.42 324.404 173.197ZM335.578 173.01C335.578 173.846 335.438 174.576 335.156 175.201C334.875 175.822 334.477 176.297 333.961 176.625C333.445 176.953 332.844 177.117 332.156 177.117C331.484 177.117 330.889 176.953 330.369 176.625C329.85 176.293 329.445 175.822 329.156 175.213C328.871 174.6 328.725 173.891 328.717 173.086V172.471C328.717 171.65 328.859 170.926 329.145 170.297C329.43 169.668 329.832 169.188 330.352 168.855C330.875 168.52 331.473 168.352 332.145 168.352C332.828 168.352 333.43 168.518 333.949 168.85C334.473 169.178 334.875 169.656 335.156 170.285C335.438 170.91 335.578 171.639 335.578 172.471V173.01ZM334.459 172.459C334.459 171.447 334.256 170.672 333.85 170.133C333.443 169.59 332.875 169.318 332.145 169.318C331.434 169.318 330.873 169.59 330.463 170.133C330.057 170.672 329.848 171.422 329.836 172.383V173.01C329.836 173.99 330.041 174.762 330.451 175.324C330.865 175.883 331.434 176.162 332.156 176.162C332.883 176.162 333.445 175.898 333.844 175.371C334.242 174.84 334.447 174.08 334.459 173.092V172.459ZM341.848 174.773H338.273L337.471 177H336.311L339.568 168.469H340.553L343.816 177H342.662L341.848 174.773ZM338.613 173.848H341.514L340.061 169.857L338.613 173.848ZM346.09 173.66V177H344.965V168.469H348.111C349.045 168.469 349.775 168.707 350.303 169.184C350.834 169.66 351.1 170.291 351.1 171.076C351.1 171.904 350.84 172.543 350.32 172.992C349.805 173.438 349.064 173.66 348.1 173.66H346.09ZM346.09 172.74H348.111C348.713 172.74 349.174 172.6 349.494 172.318C349.814 172.033 349.975 171.623 349.975 171.088C349.975 170.58 349.814 170.174 349.494 169.869C349.174 169.564 348.734 169.406 348.176 169.395H346.09V172.74Z" fill="#333333"/>
<defs>
<filter id="filter0_d_35_2" x="-5" y="0" width="182" height="76" filterUnits="userSpaceOnUse" color-interpolation-filters="sRGB">
<feFlood flood-opacity="0" result="BackgroundImageFix"/>
<feColorMatrix in="SourceAlpha" type="matrix" values="0 0 0 0 0 0 0 0 0 0 0 0 0 0 0 0 0 0 127 0" result="hardAlpha"/>
<feOffset dy="8"/>
<feGaussianBlur stdDeviation="9"/>
<feComposite in2="hardAlpha" operator="out"/>
<feColorMatrix type="matrix" values="0 0 0 0 0.2 0 0 0 0 0.2 0 0 0 0 0.2 0 0 0 0.15 0"/>
<feBlend mode="normal" in2="BackgroundImageFix" result="effect1_dropShadow_35_2"/>
<feBlend mode="normal" in="SourceGraphic" in2="effect1_dropShadow_35_2" result="shape"/>
</filter>
<filter id="filter1_d_35_2" x="147" y="0" width="233" height="76" filterUnits="userSpaceOnUse" color-interpolation-filters="sRGB">
<feFlood flood-opacity="0" result="BackgroundImageFix"/>
<feColorMatrix in="SourceAlpha" type="matrix" values="0 0 0 0 0 0 0 0 0 0 0 0 0 0 0 0 0 0 127 0" result="hardAlpha"/>
<feOffset dy="8"/>
<feGaussianBlur stdDeviation="9"/>
<feComposite in2="hardAlpha" operator="out"/>
<feColorMatrix type="matrix" values="0 0 0 0 0.2 0 0 0 0 0.2 0 0 0 0 0.2 0 0 0 0.15 0"/>
<feBlend mode="normal" in2="BackgroundImageFix" result="effect1_dropShadow_35_2"/>
<feBlend mode="normal" in="SourceGraphic" in2="effect1_dropShadow_35_2" result="shape"/>
</filter>
<filter id="filter2_d_35_2" x="50" y="48" width="275" height="76" filterUnits="userSpaceOnUse" color-interpolation-filters="sRGB">
<feFlood flood-opacity="0" result="BackgroundImageFix"/>
<feColorMatrix in="SourceAlpha" type="matrix" values="0 0 0 0 0 0 0 0 0 0 0 0 0 0 0 0 0 0 127 0" result="hardAlpha"/>
<feOffset dy="8"/>
<feGaussianBlur stdDeviation="9"/>
<feComposite in2="hardAlpha" operator="out"/>
<feColorMatrix type="matrix" values="0 0 0 0 0.2 0 0 0 0 0.2 0 0 0 0 0.2 0 0 0 0.15 0"/>
<feBlend mode="normal" in2="BackgroundImageFix" result="effect1_dropShadow_35_2"/>
<feBlend mode="normal" in="SourceGraphic" in2="effect1_dropShadow_35_2" result="shape"/>
</filter>
<filter id="filter3_d_35_2" x="43" y="240" width="152" height="152" filterUnits="userSpaceOnUse" color-interpolation-filters="sRGB">
<feFlood flood-opacity="0" result="BackgroundImageFix"/>
<feColorMatrix in="SourceAlpha" type="matrix" values="0 0 0 0 0 0 0 0 0 0 0 0 0 0 0 0 0 0 127 0" result="hardAlpha"/>
<feOffset dy="8"/>
<feGaussianBlur stdDeviation="8"/>
<feComposite in2="hardAlpha" operator="out"/>
<feColorMatrix type="matrix" values="0 0 0 0 0.2 0 0 0 0 0.2 0 0 0 0 0.2 0 0 0 0.15 0"/>
<feBlend mode="normal" in2="BackgroundImageFix" result="effect1_dropShadow_35_2"/>
<feBlend mode="normal" in="SourceGraphic" in2="effect1_dropShadow_35_2" result="shape"/>
</filter>
<filter id="filter4_d_35_2" x="180" y="240" width="152" height="152" filterUnits="userSpaceOnUse" color-interpolation-filters="sRGB">
<feFlood flood-opacity="0" result="BackgroundImageFix"/>
<feColorMatrix in="SourceAlpha" type="matrix" values="0 0 0 0 0 0 0 0 0 0 0 0 0 0 0 0 0 0 127 0" result="hardAlpha"/>
<feOffset dy="8"/>
<feGaussianBlur stdDeviation="8"/>
<feComposite in2="hardAlpha" operator="out"/>
<feColorMatrix type="matrix" values="0 0 0 0 0.2 0 0 0 0 0.2 0 0 0 0 0.2 0 0 0 0.15 0"/>
<feBlend mode="normal" in2="BackgroundImageFix" result="effect1_dropShadow_35_2"/>
<feBlend mode="normal" in="SourceGraphic" in2="effect1_dropShadow_35_2" result="shape"/>
</filter>
</defs>
</svg>
