<svg width="375" height="514" viewBox="0 0 375 514" fill="none" xmlns="http://www.w3.org/2000/svg">
<g filter="url(#filter0_d_35_2)">
<rect x="16" y="448" width="93" height="40" rx="20" fill="white"/>
</g>
<path d="M49.3882 475.266H48.1758V473H41.5425V475.272H40.3237L40.3174 472.003H41.0728C41.4705 471.555 41.7858 470.954 42.0186 470.201C42.2555 469.443 42.4036 468.614 42.4629 467.712L42.666 463.758H48.1948V472.003H49.4009L49.3882 475.266ZM42.4629 472.003H46.9697V464.761H43.8403L43.707 467.478C43.652 468.54 43.5103 469.445 43.2817 470.194C43.0575 470.943 42.7845 471.546 42.4629 472.003ZM54.9043 473C54.8366 472.865 54.7816 472.623 54.7393 472.276C54.1934 472.843 53.5417 473.127 52.7842 473.127C52.1071 473.127 51.5506 472.937 51.1147 472.556C50.6831 472.171 50.4673 471.684 50.4673 471.096C50.4673 470.381 50.7381 469.826 51.2798 469.433C51.8257 469.035 52.5916 468.836 53.5776 468.836H54.7202V468.296C54.7202 467.886 54.5975 467.56 54.3521 467.319C54.1066 467.073 53.7448 466.951 53.2666 466.951C52.8477 466.951 52.4964 467.056 52.2129 467.268C51.9294 467.48 51.7876 467.736 51.7876 468.036H50.6069C50.6069 467.693 50.7275 467.363 50.9688 467.046C51.2142 466.724 51.5443 466.47 51.959 466.284C52.3779 466.098 52.8371 466.005 53.3364 466.005C54.1278 466.005 54.7477 466.204 55.1963 466.602C55.6449 466.995 55.8776 467.539 55.8945 468.233V471.394C55.8945 472.025 55.9749 472.526 56.1357 472.898V473H54.9043ZM52.9556 472.105C53.3237 472.105 53.6729 472.01 54.0029 471.819C54.333 471.629 54.5721 471.381 54.7202 471.077V469.667H53.7998C52.361 469.667 51.6416 470.089 51.6416 470.931C51.6416 471.299 51.7643 471.587 52.0098 471.794C52.2552 472.001 52.5705 472.105 52.9556 472.105ZM62.7373 467.084H60.4331V473H59.2588V467.084H56.999V466.132H62.7373V467.084ZM69.0659 473H67.8853V470.512C67.369 470.647 66.84 470.715 66.2983 470.715C65.4393 470.715 64.7834 470.495 64.3306 470.055C63.882 469.615 63.6535 468.988 63.645 468.176V466.125H64.8193V468.214C64.8405 469.238 65.3335 469.75 66.2983 469.75C66.84 469.75 67.369 469.682 67.8853 469.547V466.132H69.0659V473ZM75.3945 466.132H76.5688V473H75.3945V467.992L72.2271 473H71.0527V466.132H72.2271V471.146L75.3945 466.132ZM80.5933 470.074H79.7363V473H78.5557V466.132H79.7363V469.039H80.5044L82.8149 466.132H84.2368L81.52 469.433L84.4653 473H82.9736L80.5933 470.074Z" fill="#333333"/>
<g filter="url(#filter1_d_35_2)">
<rect x="265" y="448" width="94" height="40" rx="20" fill="white"/>
</g>
<path d="M292.472 468.849H291.349V473H290.13V463.758H291.349V467.833H292.301L295.532 463.758H297.049L293.52 468.239L297.309 473H295.817L292.472 468.849ZM303.873 466.132V473H302.692V467.103H300.356L300.216 469.674C300.14 470.854 299.941 471.699 299.62 472.207C299.302 472.714 298.797 472.979 298.103 473H297.633V471.965L297.969 471.94C298.35 471.898 298.623 471.678 298.788 471.28C298.953 470.882 299.059 470.146 299.105 469.071L299.232 466.132H303.873ZM309.998 473C309.93 472.865 309.875 472.623 309.833 472.276C309.287 472.843 308.635 473.127 307.878 473.127C307.201 473.127 306.644 472.937 306.208 472.556C305.777 472.171 305.561 471.684 305.561 471.096C305.561 470.381 305.832 469.826 306.374 469.433C306.919 469.035 307.685 468.836 308.671 468.836H309.814V468.296C309.814 467.886 309.691 467.56 309.446 467.319C309.2 467.073 308.839 466.951 308.36 466.951C307.941 466.951 307.59 467.056 307.307 467.268C307.023 467.48 306.881 467.736 306.881 468.036H305.701C305.701 467.693 305.821 467.363 306.062 467.046C306.308 466.724 306.638 466.47 307.053 466.284C307.472 466.098 307.931 466.005 308.43 466.005C309.222 466.005 309.841 466.204 310.29 466.602C310.739 466.995 310.971 467.539 310.988 468.233V471.394C310.988 472.025 311.069 472.526 311.229 472.898V473H309.998ZM308.049 472.105C308.417 472.105 308.767 472.01 309.097 471.819C309.427 471.629 309.666 471.381 309.814 471.077V469.667H308.894C307.455 469.667 306.735 470.089 306.735 470.931C306.735 471.299 306.858 471.587 307.104 471.794C307.349 472.001 307.664 472.105 308.049 472.105ZM318.447 473H317.272V467.103H314.111V473H312.931V466.132H318.447V473ZM324.572 473C324.505 472.865 324.45 472.623 324.407 472.276C323.861 472.843 323.21 473.127 322.452 473.127C321.775 473.127 321.219 472.937 320.783 472.556C320.351 472.171 320.135 471.684 320.135 471.096C320.135 470.381 320.406 469.826 320.948 469.433C321.494 469.035 322.26 468.836 323.246 468.836H324.388V468.296C324.388 467.886 324.265 467.56 324.02 467.319C323.775 467.073 323.413 466.951 322.935 466.951C322.516 466.951 322.164 467.056 321.881 467.268C321.597 467.48 321.456 467.736 321.456 468.036H320.275C320.275 467.693 320.396 467.363 320.637 467.046C320.882 466.724 321.212 466.47 321.627 466.284C322.046 466.098 322.505 466.005 323.004 466.005C323.796 466.005 324.416 466.204 324.864 466.602C325.313 466.995 325.546 467.539 325.562 468.233V471.394C325.562 472.025 325.643 472.526 325.804 472.898V473H324.572ZM322.624 472.105C322.992 472.105 323.341 472.01 323.671 471.819C324.001 471.629 324.24 471.381 324.388 471.077V469.667H323.468C322.029 469.667 321.31 470.089 321.31 470.931C321.31 471.299 321.432 471.587 321.678 471.794C321.923 472.001 322.238 472.105 322.624 472.105ZM333.015 473H331.84V470.067H328.686V473H327.505V466.132H328.686V469.109H331.84V466.132H333.015V473Z" fill="#333333"/>
<g filter="url(#filter2_d_35_2)">
<rect x="16" y="8" width="343" height="208" rx="32" fill="white"/>
</g>
<path d="M44.9102 48V41.3555H40.9727L37.4453 48H35.043L39.0039 40.7344C36.8008 39.8672 35.6992 38.3164 35.6992 36.082C35.6992 34.457 36.2305 33.1953 37.293 32.2969C38.3633 31.3906 39.8477 30.9375 41.7461 30.9375H47.1719V48H44.9102ZM37.9492 36.082C37.9492 37.1133 38.2695 37.9414 38.9102 38.5664C39.5586 39.1914 40.457 39.5078 41.6055 39.5156H44.9102V32.7891H41.7109C40.4922 32.7891 39.5586 33.0781 38.9102 33.6562C38.2695 34.2344 37.9492 35.043 37.9492 36.082ZM50.8164 46.2305L51.5664 45.3047C52.4102 44.2109 52.8906 42.5703 53.0078 40.3828L53.207 35.3203H61.375V46.2305H63.0039V51.7266H60.8359V48H51.9883V51.7266H49.8203L49.832 46.2305H50.8164ZM53.3828 46.2305H59.207V37.3242H55.3047L55.1758 40.3477C55.043 42.8711 54.4453 44.832 53.3828 46.2305ZM76.1172 41.8008C76.1172 43.7305 75.6758 45.2852 74.793 46.4648C73.9102 47.6445 72.7148 48.2344 71.207 48.2344C69.668 48.2344 68.457 47.7461 67.5742 46.7695V52.875H65.4062V35.3203H67.3867L67.4922 36.7266C68.375 35.6328 69.6016 35.0859 71.1719 35.0859C72.6953 35.0859 73.8984 35.6602 74.7812 36.8086C75.6719 37.957 76.1172 39.5547 76.1172 41.6016V41.8008ZM73.9492 41.5547C73.9492 40.125 73.6445 38.9961 73.0352 38.168C72.4258 37.3398 71.5898 36.9258 70.5273 36.9258C69.2148 36.9258 68.2305 37.5078 67.5742 38.6719V44.7305C68.2227 45.8867 69.2148 46.4648 70.5508 46.4648C71.5898 46.4648 72.4141 46.0547 73.0234 45.2344C73.6406 44.4062 73.9492 43.1797 73.9492 41.5547ZM78.3086 41.543C78.3086 40.3008 78.5508 39.1836 79.0352 38.1914C79.5273 37.1992 80.207 36.4336 81.0742 35.8945C81.9492 35.3555 82.9453 35.0859 84.0625 35.0859C85.7891 35.0859 87.1836 35.6836 88.2461 36.8789C89.3164 38.0742 89.8516 39.6641 89.8516 41.6484V41.8008C89.8516 43.0352 89.6133 44.1445 89.1367 45.1289C88.668 46.1055 87.9922 46.8672 87.1094 47.4141C86.2344 47.9609 85.2266 48.2344 84.0859 48.2344C82.3672 48.2344 80.9727 47.6367 79.9023 46.4414C78.8398 45.2461 78.3086 43.6641 78.3086 41.6953V41.543ZM80.4883 41.8008C80.4883 43.207 80.8125 44.3359 81.4609 45.1875C82.1172 46.0391 82.9922 46.4648 84.0859 46.4648C85.1875 46.4648 86.0625 46.0352 86.7109 45.1758C87.3594 44.3086 87.6836 43.0977 87.6836 41.543C87.6836 40.1523 87.3516 39.0273 86.6875 38.168C86.0312 37.3008 85.1562 36.8672 84.0625 36.8672C82.9922 36.8672 82.1289 37.293 81.4727 38.1445C80.8164 38.9961 80.4883 40.2148 80.4883 41.8008Z" fill="#333333"/>
<rect x="47" y="72" width="120" height="120" rx="32" fill="#F2F4F9"/>
<rect x="207" y="72" width="120" height="120" rx="32" fill="#F2F4F9"/>
<path d="M85.248 126.402H81.0781L80.1416 129H78.7881L82.5889 119.047H83.7373L87.5449 129H86.1982L85.248 126.402ZM81.4746 125.322H84.8584L83.1631 120.667L81.4746 125.322ZM96.4863 129H95.167V120.127H90.2588V129H88.9463V119.047H96.4863V129ZM105.154 119.047H106.467V129H105.154V121.33L100.253 129H98.9336V119.047H100.253V126.717L105.154 119.047ZM112.072 127.968L112.51 127.428C113.002 126.79 113.282 125.833 113.351 124.557L113.467 121.604H118.231V127.968H119.182V131.174H117.917V129H112.756V131.174H111.491L111.498 127.968H112.072ZM113.569 127.968H116.967V122.772H114.69L114.615 124.536C114.538 126.008 114.189 127.152 113.569 127.968ZM126.646 121.604V129H125.375V122.649H122.859L122.709 125.418C122.627 126.689 122.413 127.599 122.066 128.146C121.725 128.692 121.18 128.977 120.433 129H119.927V127.886L120.289 127.858C120.699 127.813 120.993 127.576 121.171 127.147C121.349 126.719 121.463 125.926 121.513 124.769L121.649 121.604H126.646ZM134.33 121.604V129H133.059V126.122H131.151L129.408 129H128.041L129.9 125.931C129.426 125.757 129.062 125.491 128.807 125.131C128.556 124.766 128.431 124.342 128.431 123.859C128.431 123.185 128.684 122.643 129.189 122.232C129.695 121.818 130.372 121.608 131.22 121.604H134.33ZM129.702 123.873C129.702 124.233 129.825 124.525 130.071 124.748C130.317 124.967 130.643 125.078 131.049 125.083H133.059V122.629H131.24C130.771 122.629 130.397 122.745 130.119 122.978C129.841 123.205 129.702 123.504 129.702 123.873ZM74.9531 137.604H76.2178V145H74.9531V139.606L71.542 145H70.2773V137.604H71.542V143.004L74.9531 137.604ZM84.291 145H83.0264V141.842H79.6289V145H78.3574V137.604H79.6289V140.81H83.0264V137.604H84.291V145ZM91.8242 138.629H89.3428V145H88.0781V138.629H85.6445V137.604H91.8242V138.629ZM95.5771 145.137C94.5745 145.137 93.7588 144.809 93.1299 144.152C92.501 143.492 92.1865 142.61 92.1865 141.507V141.274C92.1865 140.541 92.3255 139.887 92.6035 139.312C92.8861 138.734 93.278 138.283 93.7793 137.959C94.2852 137.631 94.832 137.467 95.4199 137.467C96.3815 137.467 97.1289 137.784 97.6621 138.417C98.1953 139.05 98.4619 139.957 98.4619 141.138V141.664H93.4512C93.4694 142.393 93.6813 142.983 94.0869 143.435C94.4971 143.881 95.0166 144.104 95.6455 144.104C96.0921 144.104 96.4704 144.013 96.7803 143.831C97.0902 143.649 97.3613 143.407 97.5938 143.106L98.3662 143.708C97.7464 144.66 96.8167 145.137 95.5771 145.137ZM95.4199 138.506C94.9095 138.506 94.4811 138.693 94.1348 139.066C93.7884 139.436 93.5742 139.955 93.4922 140.625H97.1973V140.529C97.1608 139.887 96.9876 139.39 96.6777 139.039C96.3678 138.684 95.9486 138.506 95.4199 138.506ZM104.71 138.649H101.299V145H100.027V137.604H104.71V138.649ZM112.059 141.384C112.059 142.509 111.801 143.416 111.286 144.104C110.771 144.793 110.074 145.137 109.194 145.137C108.297 145.137 107.59 144.852 107.075 144.282V147.844H105.811V137.604H106.966L107.027 138.424C107.542 137.786 108.258 137.467 109.174 137.467C110.062 137.467 110.764 137.802 111.279 138.472C111.799 139.142 112.059 140.074 112.059 141.268V141.384ZM110.794 141.24C110.794 140.406 110.616 139.748 110.261 139.265C109.905 138.782 109.418 138.54 108.798 138.54C108.032 138.54 107.458 138.88 107.075 139.559V143.093C107.453 143.767 108.032 144.104 108.812 144.104C109.418 144.104 109.898 143.865 110.254 143.387C110.614 142.904 110.794 142.188 110.794 141.24ZM118.238 145C118.165 144.854 118.106 144.594 118.061 144.221C117.473 144.831 116.771 145.137 115.955 145.137C115.226 145.137 114.627 144.932 114.157 144.521C113.692 144.107 113.46 143.583 113.46 142.949C113.46 142.179 113.752 141.582 114.335 141.158C114.923 140.73 115.748 140.516 116.81 140.516H118.04V139.935C118.04 139.493 117.908 139.142 117.644 138.882C117.379 138.618 116.99 138.485 116.475 138.485C116.023 138.485 115.645 138.599 115.34 138.827C115.035 139.055 114.882 139.331 114.882 139.654H113.61C113.61 139.285 113.74 138.93 114 138.588C114.264 138.242 114.62 137.968 115.066 137.768C115.518 137.567 116.012 137.467 116.55 137.467C117.402 137.467 118.07 137.681 118.553 138.109C119.036 138.533 119.286 139.119 119.305 139.866V143.271C119.305 143.95 119.391 144.49 119.564 144.891V145H118.238ZM116.14 144.036C116.536 144.036 116.912 143.934 117.268 143.729C117.623 143.523 117.881 143.257 118.04 142.929V141.411H117.049C115.499 141.411 114.725 141.865 114.725 142.771C114.725 143.168 114.857 143.478 115.121 143.701C115.385 143.924 115.725 144.036 116.14 144.036ZM121.396 137.604H122.668V143.968H126.072V137.604H127.337V143.968H128.219L128.096 147.194H126.961V145H121.396V137.604ZM134.371 137.604H135.636V145H134.371V139.606L130.96 145H129.695V137.604H130.96V143.004L134.371 137.604ZM142.451 137.604H143.716V145H142.451V139.606L139.04 145H137.775V137.604H139.04V143.004L142.451 137.604Z" fill="#333333"/>
<path d="M232.308 119.047L235.562 127.168L238.815 119.047H240.518V129H239.205V125.124L239.328 120.94L236.061 129H235.056L231.795 120.961L231.925 125.124V129H230.612V119.047H232.308ZM242.302 125.233C242.302 124.509 242.443 123.857 242.726 123.278C243.013 122.7 243.409 122.253 243.915 121.938C244.425 121.624 245.007 121.467 245.658 121.467C246.665 121.467 247.479 121.815 248.099 122.513C248.723 123.21 249.035 124.137 249.035 125.295V125.384C249.035 126.104 248.896 126.751 248.618 127.325C248.345 127.895 247.951 128.339 247.436 128.658C246.925 128.977 246.337 129.137 245.672 129.137C244.669 129.137 243.856 128.788 243.231 128.091C242.612 127.394 242.302 126.471 242.302 125.322V125.233ZM243.573 125.384C243.573 126.204 243.762 126.863 244.141 127.359C244.523 127.856 245.034 128.104 245.672 128.104C246.314 128.104 246.825 127.854 247.203 127.353C247.581 126.847 247.771 126.14 247.771 125.233C247.771 124.422 247.577 123.766 247.189 123.265C246.807 122.759 246.296 122.506 245.658 122.506C245.034 122.506 244.53 122.754 244.147 123.251C243.765 123.748 243.573 124.459 243.573 125.384ZM253.868 122.027C254.798 122.027 255.541 122.34 256.097 122.964C256.657 123.584 256.938 124.402 256.938 125.418V125.534C256.938 126.231 256.803 126.856 256.534 127.407C256.265 127.954 255.878 128.38 255.372 128.686C254.871 128.986 254.292 129.137 253.636 129.137C252.642 129.137 251.842 128.806 251.236 128.146C250.63 127.48 250.327 126.589 250.327 125.473V124.857C250.327 123.303 250.614 122.068 251.188 121.152C251.767 120.236 252.619 119.678 253.745 119.478C254.383 119.364 254.814 119.225 255.037 119.061C255.26 118.896 255.372 118.671 255.372 118.384H256.411C256.411 118.953 256.281 119.398 256.021 119.717C255.766 120.036 255.356 120.261 254.791 120.394L253.848 120.605C253.096 120.783 252.531 121.084 252.152 121.508C251.779 121.927 251.535 122.488 251.421 123.189C252.091 122.415 252.907 122.027 253.868 122.027ZM253.622 123.066C253.002 123.066 252.51 123.276 252.146 123.695C251.781 124.11 251.599 124.687 251.599 125.425V125.534C251.599 126.327 251.781 126.956 252.146 127.421C252.515 127.881 253.011 128.111 253.636 128.111C254.265 128.111 254.761 127.879 255.126 127.414C255.491 126.949 255.673 126.27 255.673 125.377C255.673 124.68 255.488 124.121 255.119 123.702C254.755 123.278 254.256 123.066 253.622 123.066ZM263.021 121.604H264.286V129H263.021V123.606L259.61 129H258.346V121.604H259.61V127.004L263.021 121.604ZM272.38 121.604V129H271.108V122.649H268.593L268.442 125.418C268.36 126.689 268.146 127.599 267.8 128.146C267.458 128.692 266.913 128.977 266.166 129H265.66V127.886L266.022 127.858C266.433 127.813 266.727 127.576 266.904 127.147C267.082 126.719 267.196 125.926 267.246 124.769L267.383 121.604H272.38ZM275.791 124.153H277.712C278.55 124.162 279.214 124.381 279.701 124.81C280.189 125.238 280.433 125.819 280.433 126.553C280.433 127.291 280.182 127.883 279.681 128.33C279.179 128.777 278.505 129 277.657 129H274.526V121.604H275.791V124.153ZM275.791 125.186V127.968H277.671C278.145 127.968 278.512 127.847 278.771 127.605C279.031 127.359 279.161 127.024 279.161 126.601C279.161 126.19 279.034 125.855 278.778 125.596C278.528 125.331 278.174 125.195 277.719 125.186H275.791ZM288.055 129H286.79V125.842H283.393V129H282.121V121.604H283.393V124.81H286.79V121.604H288.055V129ZM289.757 125.233C289.757 124.509 289.898 123.857 290.181 123.278C290.468 122.7 290.864 122.253 291.37 121.938C291.881 121.624 292.462 121.467 293.113 121.467C294.12 121.467 294.934 121.815 295.554 122.513C296.178 123.21 296.49 124.137 296.49 125.295V125.384C296.49 126.104 296.351 126.751 296.073 127.325C295.8 127.895 295.406 128.339 294.891 128.658C294.38 128.977 293.792 129.137 293.127 129.137C292.124 129.137 291.311 128.788 290.687 128.091C290.067 127.394 289.757 126.471 289.757 125.322V125.233ZM291.028 125.384C291.028 126.204 291.217 126.863 291.596 127.359C291.979 127.856 292.489 128.104 293.127 128.104C293.77 128.104 294.28 127.854 294.658 127.353C295.036 126.847 295.226 126.14 295.226 125.233C295.226 124.422 295.032 123.766 294.645 123.265C294.262 122.759 293.751 122.506 293.113 122.506C292.489 122.506 291.985 122.754 291.603 123.251C291.22 123.748 291.028 124.459 291.028 125.384ZM301.146 129.137C300.143 129.137 299.327 128.809 298.698 128.152C298.069 127.492 297.755 126.61 297.755 125.507V125.274C297.755 124.541 297.894 123.887 298.172 123.312C298.454 122.734 298.846 122.283 299.348 121.959C299.854 121.631 300.4 121.467 300.988 121.467C301.95 121.467 302.697 121.784 303.23 122.417C303.764 123.05 304.03 123.957 304.03 125.138V125.664H299.02C299.038 126.393 299.25 126.983 299.655 127.435C300.065 127.881 300.585 128.104 301.214 128.104C301.66 128.104 302.039 128.013 302.349 127.831C302.659 127.649 302.93 127.407 303.162 127.106L303.935 127.708C303.315 128.66 302.385 129.137 301.146 129.137ZM300.988 122.506C300.478 122.506 300.049 122.693 299.703 123.066C299.357 123.436 299.143 123.955 299.061 124.625H302.766V124.529C302.729 123.887 302.556 123.39 302.246 123.039C301.936 122.684 301.517 122.506 300.988 122.506ZM233.237 145H231.973V138.649H228.568V145H227.297V137.604H233.237V145ZM241.516 141.384C241.516 142.509 241.258 143.416 240.743 144.104C240.228 144.793 239.531 145.137 238.651 145.137C237.754 145.137 237.047 144.852 236.532 144.282V147.844H235.268V137.604H236.423L236.484 138.424C236.999 137.786 237.715 137.467 238.631 137.467C239.52 137.467 240.221 137.802 240.736 138.472C241.256 139.142 241.516 140.074 241.516 141.268V141.384ZM240.251 141.24C240.251 140.406 240.073 139.748 239.718 139.265C239.362 138.782 238.875 138.54 238.255 138.54C237.489 138.54 236.915 138.88 236.532 139.559V143.093C236.91 143.767 237.489 144.104 238.269 144.104C238.875 144.104 239.355 143.865 239.711 143.387C240.071 142.904 240.251 142.188 240.251 141.24ZM247.914 137.604H249.179V145H247.914V139.606L244.503 145H243.238V137.604H244.503V143.004L247.914 137.604ZM257.272 137.604V145H256.001V138.649H253.485L253.335 141.418C253.253 142.689 253.039 143.599 252.692 144.146C252.351 144.692 251.806 144.977 251.059 145H250.553V143.886L250.915 143.858C251.325 143.813 251.619 143.576 251.797 143.147C251.975 142.719 252.089 141.926 252.139 140.769L252.275 137.604H257.272ZM258.968 141.233C258.968 140.509 259.109 139.857 259.392 139.278C259.679 138.7 260.075 138.253 260.581 137.938C261.091 137.624 261.673 137.467 262.324 137.467C263.331 137.467 264.145 137.815 264.765 138.513C265.389 139.21 265.701 140.137 265.701 141.295V141.384C265.701 142.104 265.562 142.751 265.284 143.325C265.011 143.895 264.617 144.339 264.102 144.658C263.591 144.977 263.003 145.137 262.338 145.137C261.335 145.137 260.522 144.788 259.897 144.091C259.278 143.394 258.968 142.471 258.968 141.322V141.233ZM260.239 141.384C260.239 142.204 260.428 142.863 260.807 143.359C261.189 143.856 261.7 144.104 262.338 144.104C262.98 144.104 263.491 143.854 263.869 143.353C264.247 142.847 264.437 142.14 264.437 141.233C264.437 140.422 264.243 139.766 263.855 139.265C263.473 138.759 262.962 138.506 262.324 138.506C261.7 138.506 261.196 138.754 260.813 139.251C260.431 139.748 260.239 140.459 260.239 141.384ZM273.036 141.787H272.147V145H270.883V141.787H269.994L267.923 145H266.323L268.969 141.172L266.576 137.604H268.107L270.015 140.666H270.883V137.604H272.147V140.666H273.009L274.93 137.604H276.461L274.062 141.179L276.707 145H275.107L273.036 141.787ZM280.788 145.137C279.785 145.137 278.97 144.809 278.341 144.152C277.712 143.492 277.397 142.61 277.397 141.507V141.274C277.397 140.541 277.536 139.887 277.814 139.312C278.097 138.734 278.489 138.283 278.99 137.959C279.496 137.631 280.043 137.467 280.631 137.467C281.592 137.467 282.34 137.784 282.873 138.417C283.406 139.05 283.673 139.957 283.673 141.138V141.664H278.662C278.68 142.393 278.892 142.983 279.298 143.435C279.708 143.881 280.228 144.104 280.856 144.104C281.303 144.104 281.681 144.013 281.991 143.831C282.301 143.649 282.572 143.407 282.805 143.106L283.577 143.708C282.957 144.66 282.028 145.137 280.788 145.137ZM280.631 138.506C280.12 138.506 279.692 138.693 279.346 139.066C278.999 139.436 278.785 139.955 278.703 140.625H282.408V140.529C282.372 139.887 282.199 139.39 281.889 139.039C281.579 138.684 281.16 138.506 280.631 138.506ZM291.186 145H289.921V141.842H286.523V145H285.252V137.604H286.523V140.81H289.921V137.604H291.186V145ZM298.008 137.604H299.272V145H298.008V139.606L294.597 145H293.332V137.604H294.597V143.004L298.008 137.604ZM304.372 145.137C303.369 145.137 302.554 144.809 301.925 144.152C301.296 143.492 300.981 142.61 300.981 141.507V141.274C300.981 140.541 301.12 139.887 301.398 139.312C301.681 138.734 302.073 138.283 302.574 137.959C303.08 137.631 303.627 137.467 304.215 137.467C305.176 137.467 305.924 137.784 306.457 138.417C306.99 139.05 307.257 139.957 307.257 141.138V141.664H302.246C302.264 142.393 302.476 142.983 302.882 143.435C303.292 143.881 303.812 144.104 304.44 144.104C304.887 144.104 305.265 144.013 305.575 143.831C305.885 143.649 306.156 143.407 306.389 143.106L307.161 143.708C306.541 144.66 305.612 145.137 304.372 145.137ZM304.215 138.506C303.704 138.506 303.276 138.693 302.93 139.066C302.583 139.436 302.369 139.955 302.287 140.625H305.992V140.529C305.956 139.887 305.783 139.39 305.473 139.039C305.163 138.684 304.743 138.506 304.215 138.506Z" fill="#333333"/>
<path d="M186 318.999L186 223.999M186 318.999L61 318.999L61 415.5M186 318.999L314 318.999L314 415.5" stroke="#333333" stroke-width="2" stroke-linejoin="round" stroke-dasharray="10 10"/>
<path d="M115.939 466.939C115.354 467.525 115.354 468.475 115.939 469.061L125.485 478.607C126.071 479.192 127.021 479.192 127.607 478.607C128.192 478.021 128.192 477.071 127.607 476.485L119.121 468L127.607 459.515C128.192 458.929 128.192 457.979 127.607 457.393C127.021 456.808 126.071 456.808 125.485 457.393L115.939 466.939ZM258.061 469.061C258.646 468.475 258.646 467.525 258.061 466.939L248.515 457.393C247.929 456.808 246.979 456.808 246.393 457.393C245.808 457.979 245.808 458.929 246.393 459.515L254.879 468L246.393 476.485C245.808 477.071 245.808 478.021 246.393 478.607C246.979 479.192 247.929 479.192 248.515 478.607L258.061 469.061ZM117 469.5L257 469.5V466.5L117 466.5V469.5Z" fill="#333333"/>
<path d="M90.5742 298.549H88.5703V302H87.4395V293.469H90.2637C91.2246 293.469 91.9629 293.688 92.4785 294.125C92.998 294.562 93.2578 295.199 93.2578 296.035C93.2578 296.566 93.1133 297.029 92.8242 297.424C92.5391 297.818 92.1406 298.113 91.6289 298.309L93.6328 301.93V302H92.4258L90.5742 298.549ZM88.5703 297.629H90.2988C90.8574 297.629 91.3008 297.484 91.6289 297.195C91.9609 296.906 92.127 296.52 92.127 296.035C92.127 295.508 91.9688 295.104 91.6523 294.822C91.3398 294.541 90.8867 294.398 90.293 294.395H88.5703V297.629ZM99.6621 298.057H95.9648V301.08H100.26V302H94.8398V293.469H100.201V294.395H95.9648V297.137H99.6621V298.057ZM104.174 298.197C103.209 297.92 102.506 297.58 102.064 297.178C101.627 296.771 101.408 296.271 101.408 295.678C101.408 295.006 101.676 294.451 102.211 294.014C102.75 293.572 103.449 293.352 104.309 293.352C104.895 293.352 105.416 293.465 105.873 293.691C106.334 293.918 106.689 294.23 106.939 294.629C107.193 295.027 107.32 295.463 107.32 295.936H106.189C106.189 295.42 106.025 295.016 105.697 294.723C105.369 294.426 104.906 294.277 104.309 294.277C103.754 294.277 103.32 294.4 103.008 294.646C102.699 294.889 102.545 295.227 102.545 295.66C102.545 296.008 102.691 296.303 102.984 296.545C103.281 296.783 103.783 297.002 104.49 297.201C105.201 297.4 105.756 297.621 106.154 297.863C106.557 298.102 106.854 298.381 107.045 298.701C107.24 299.021 107.338 299.398 107.338 299.832C107.338 300.523 107.068 301.078 106.529 301.496C105.99 301.91 105.27 302.117 104.367 302.117C103.781 302.117 103.234 302.006 102.727 301.783C102.219 301.557 101.826 301.248 101.549 300.857C101.275 300.467 101.139 300.023 101.139 299.527H102.27C102.27 300.043 102.459 300.451 102.838 300.752C103.221 301.049 103.73 301.197 104.367 301.197C104.961 301.197 105.416 301.076 105.732 300.834C106.049 300.592 106.207 300.262 106.207 299.844C106.207 299.426 106.061 299.104 105.768 298.877C105.475 298.646 104.943 298.42 104.174 298.197ZM114.68 294.395H111.938V302H110.818V294.395H108.082V293.469H114.68V294.395ZM115.992 302.732H115.061L118.623 293.469H119.549L115.992 302.732ZM123.404 298.197C122.439 297.92 121.736 297.58 121.295 297.178C120.857 296.771 120.639 296.271 120.639 295.678C120.639 295.006 120.906 294.451 121.441 294.014C121.98 293.572 122.68 293.352 123.539 293.352C124.125 293.352 124.646 293.465 125.104 293.691C125.564 293.918 125.92 294.23 126.17 294.629C126.424 295.027 126.551 295.463 126.551 295.936H125.42C125.42 295.42 125.256 295.016 124.928 294.723C124.6 294.426 124.137 294.277 123.539 294.277C122.984 294.277 122.551 294.4 122.238 294.646C121.93 294.889 121.775 295.227 121.775 295.66C121.775 296.008 121.922 296.303 122.215 296.545C122.512 296.783 123.014 297.002 123.721 297.201C124.432 297.4 124.986 297.621 125.385 297.863C125.787 298.102 126.084 298.381 126.275 298.701C126.471 299.021 126.568 299.398 126.568 299.832C126.568 300.523 126.299 301.078 125.76 301.496C125.221 301.91 124.5 302.117 123.598 302.117C123.012 302.117 122.465 302.006 121.957 301.783C121.449 301.557 121.057 301.248 120.779 300.857C120.506 300.467 120.369 300.023 120.369 299.527H121.5C121.5 300.043 121.689 300.451 122.068 300.752C122.451 301.049 122.961 301.197 123.598 301.197C124.191 301.197 124.646 301.076 124.963 300.834C125.279 300.592 125.438 300.262 125.438 299.844C125.438 299.426 125.291 299.104 124.998 298.877C124.705 298.646 124.174 298.42 123.404 298.197ZM134.578 298.01C134.578 298.846 134.438 299.576 134.156 300.201C133.875 300.822 133.477 301.297 132.961 301.625C132.445 301.953 131.844 302.117 131.156 302.117C130.484 302.117 129.889 301.953 129.369 301.625C128.85 301.293 128.445 300.822 128.156 300.213C127.871 299.6 127.725 298.891 127.717 298.086V297.471C127.717 296.65 127.859 295.926 128.145 295.297C128.43 294.668 128.832 294.188 129.352 293.855C129.875 293.52 130.473 293.352 131.145 293.352C131.828 293.352 132.43 293.518 132.949 293.85C133.473 294.178 133.875 294.656 134.156 295.285C134.438 295.91 134.578 296.639 134.578 297.471V298.01ZM133.459 297.459C133.459 296.447 133.256 295.672 132.85 295.133C132.443 294.59 131.875 294.318 131.145 294.318C130.434 294.318 129.873 294.59 129.463 295.133C129.057 295.672 128.848 296.422 128.836 297.383V298.01C128.836 298.99 129.041 299.762 129.451 300.324C129.865 300.883 130.434 301.162 131.156 301.162C131.883 301.162 132.445 300.898 132.844 300.371C133.242 299.84 133.447 299.08 133.459 298.092V297.459ZM140.848 299.773H137.273L136.471 302H135.311L138.568 293.469H139.553L142.816 302H141.662L140.848 299.773ZM137.613 298.848H140.514L139.061 294.857L137.613 298.848ZM145.09 298.66V302H143.965V293.469H147.111C148.045 293.469 148.775 293.707 149.303 294.184C149.834 294.66 150.1 295.291 150.1 296.076C150.1 296.904 149.84 297.543 149.32 297.992C148.805 298.438 148.064 298.66 147.1 298.66H145.09ZM145.09 297.74H147.111C147.713 297.74 148.174 297.6 148.494 297.318C148.814 297.033 148.975 296.623 148.975 296.088C148.975 295.58 148.814 295.174 148.494 294.869C148.174 294.564 147.734 294.406 147.176 294.395H145.09V297.74Z" fill="#333333"/>
<path d="M235.365 300.881C235.076 301.295 234.672 301.605 234.152 301.812C233.637 302.016 233.035 302.117 232.348 302.117C231.652 302.117 231.035 301.955 230.496 301.631C229.957 301.303 229.539 300.838 229.242 300.236C228.949 299.635 228.799 298.938 228.791 298.145V297.4C228.791 296.115 229.09 295.119 229.688 294.412C230.289 293.705 231.133 293.352 232.219 293.352C233.109 293.352 233.826 293.58 234.369 294.037C234.912 294.49 235.244 295.135 235.365 295.971H234.24C234.029 294.842 233.357 294.277 232.225 294.277C231.471 294.277 230.898 294.543 230.508 295.074C230.121 295.602 229.926 296.367 229.922 297.371V298.068C229.922 299.025 230.141 299.787 230.578 300.354C231.016 300.916 231.607 301.197 232.354 301.197C232.775 301.197 233.145 301.15 233.461 301.057C233.777 300.963 234.039 300.805 234.246 300.582V298.666H232.271V297.752H235.365V300.881ZM239.76 298.197C238.795 297.92 238.092 297.58 237.65 297.178C237.213 296.771 236.994 296.271 236.994 295.678C236.994 295.006 237.262 294.451 237.797 294.014C238.336 293.572 239.035 293.352 239.895 293.352C240.48 293.352 241.002 293.465 241.459 293.691C241.92 293.918 242.275 294.23 242.525 294.629C242.779 295.027 242.906 295.463 242.906 295.936H241.775C241.775 295.42 241.611 295.016 241.283 294.723C240.955 294.426 240.492 294.277 239.895 294.277C239.34 294.277 238.906 294.4 238.594 294.646C238.285 294.889 238.131 295.227 238.131 295.66C238.131 296.008 238.277 296.303 238.57 296.545C238.867 296.783 239.369 297.002 240.076 297.201C240.787 297.4 241.342 297.621 241.74 297.863C242.143 298.102 242.439 298.381 242.631 298.701C242.826 299.021 242.924 299.398 242.924 299.832C242.924 300.523 242.654 301.078 242.115 301.496C241.576 301.91 240.855 302.117 239.953 302.117C239.367 302.117 238.82 302.006 238.312 301.783C237.805 301.557 237.412 301.248 237.135 300.857C236.861 300.467 236.725 300.023 236.725 299.527H237.855C237.855 300.043 238.045 300.451 238.424 300.752C238.807 301.049 239.316 301.197 239.953 301.197C240.547 301.197 241.002 301.076 241.318 300.834C241.635 300.592 241.793 300.262 241.793 299.844C241.793 299.426 241.646 299.104 241.354 298.877C241.061 298.646 240.529 298.42 239.76 298.197ZM245.824 293.469L248.613 300.43L251.402 293.469H252.861V302H251.736V298.678L251.842 295.092L249.041 302H248.18L245.385 295.109L245.496 298.678V302H244.371V293.469H245.824ZM254.895 302.732H253.963L257.525 293.469H258.451L254.895 302.732ZM261.633 299.311L261.797 300.436L262.037 299.422L263.725 293.469H264.674L266.32 299.422L266.555 300.453L266.736 299.305L268.061 293.469H269.191L267.123 302H266.098L264.34 295.783L264.205 295.133L264.07 295.783L262.248 302H261.223L259.16 293.469H260.285L261.633 299.311ZM271.453 302H270.369V295.66H271.453V302ZM270.281 293.979C270.281 293.803 270.334 293.654 270.439 293.533C270.549 293.412 270.709 293.352 270.92 293.352C271.131 293.352 271.291 293.412 271.4 293.533C271.51 293.654 271.564 293.803 271.564 293.979C271.564 294.154 271.51 294.301 271.4 294.418C271.291 294.535 271.131 294.594 270.92 294.594C270.709 294.594 270.549 294.535 270.439 294.418C270.334 294.301 270.281 294.154 270.281 293.979ZM278.068 298.232H274.488V302H273.363V293.469H278.648V294.395H274.488V297.312H278.068V298.232ZM281.004 302H279.92V295.66H281.004V302ZM279.832 293.979C279.832 293.803 279.885 293.654 279.99 293.533C280.1 293.412 280.26 293.352 280.471 293.352C280.682 293.352 280.842 293.412 280.951 293.533C281.061 293.654 281.115 293.803 281.115 293.979C281.115 294.154 281.061 294.301 280.951 294.418C280.842 294.535 280.682 294.594 280.471 294.594C280.26 294.594 280.1 294.535 279.99 294.418C279.885 294.301 279.832 294.154 279.832 293.979Z" fill="#333333"/>
<path d="M153.408 454.66V458H152.283V449.469H155.43C156.363 449.469 157.094 449.707 157.621 450.184C158.152 450.66 158.418 451.291 158.418 452.076C158.418 452.904 158.158 453.543 157.639 453.992C157.123 454.438 156.383 454.66 155.418 454.66H153.408ZM153.408 453.74H155.43C156.031 453.74 156.492 453.6 156.812 453.318C157.133 453.033 157.293 452.623 157.293 452.088C157.293 451.58 157.133 451.174 156.812 450.869C156.492 450.564 156.053 450.406 155.494 450.395H153.408V453.74ZM163.527 458C163.465 457.875 163.414 457.652 163.375 457.332C162.871 457.855 162.27 458.117 161.57 458.117C160.945 458.117 160.432 457.941 160.029 457.59C159.631 457.234 159.432 456.785 159.432 456.242C159.432 455.582 159.682 455.07 160.182 454.707C160.686 454.34 161.393 454.156 162.303 454.156H163.357V453.658C163.357 453.279 163.244 452.979 163.018 452.756C162.791 452.529 162.457 452.416 162.016 452.416C161.629 452.416 161.305 452.514 161.043 452.709C160.781 452.904 160.65 453.141 160.65 453.418H159.561C159.561 453.102 159.672 452.797 159.895 452.504C160.121 452.207 160.426 451.973 160.809 451.801C161.195 451.629 161.619 451.543 162.08 451.543C162.811 451.543 163.383 451.727 163.797 452.094C164.211 452.457 164.426 452.959 164.441 453.6V456.518C164.441 457.1 164.516 457.562 164.664 457.906V458H163.527ZM161.729 457.174C162.068 457.174 162.391 457.086 162.695 456.91C163 456.734 163.221 456.506 163.357 456.225V454.924H162.508C161.18 454.924 160.516 455.312 160.516 456.09C160.516 456.43 160.629 456.695 160.855 456.887C161.082 457.078 161.373 457.174 161.729 457.174ZM166.088 457.115L166.463 456.652C166.885 456.105 167.125 455.285 167.184 454.191L167.283 451.66H171.367V457.115H172.182V459.863H171.098V458H166.674V459.863H165.59L165.596 457.115H166.088ZM167.371 457.115H170.283V452.662H168.332L168.268 454.174C168.201 455.436 167.902 456.416 167.371 457.115ZM177.484 451.66H178.568V458H177.484V453.377L174.561 458H173.477V451.66H174.561V456.289L177.484 451.66ZM180.021 454.771C180.021 454.15 180.143 453.592 180.385 453.096C180.631 452.6 180.971 452.217 181.404 451.947C181.842 451.678 182.34 451.543 182.898 451.543C183.762 451.543 184.459 451.842 184.99 452.439C185.525 453.037 185.793 453.832 185.793 454.824V454.9C185.793 455.518 185.674 456.072 185.436 456.564C185.201 457.053 184.863 457.434 184.422 457.707C183.984 457.98 183.48 458.117 182.91 458.117C182.051 458.117 181.354 457.818 180.818 457.221C180.287 456.623 180.021 455.832 180.021 454.848V454.771ZM181.111 454.9C181.111 455.604 181.273 456.168 181.598 456.594C181.926 457.02 182.363 457.232 182.91 457.232C183.461 457.232 183.898 457.018 184.223 456.588C184.547 456.154 184.709 455.549 184.709 454.771C184.709 454.076 184.543 453.514 184.211 453.084C183.883 452.65 183.445 452.434 182.898 452.434C182.363 452.434 181.932 452.646 181.604 453.072C181.275 453.498 181.111 454.107 181.111 454.9ZM192.104 455.299H191.312V458H190.223V451.66H191.312V454.344H192.021L194.154 451.66H195.467L192.959 454.707L195.678 458H194.301L192.104 455.299ZM200.523 458C200.461 457.875 200.41 457.652 200.371 457.332C199.867 457.855 199.266 458.117 198.566 458.117C197.941 458.117 197.428 457.941 197.025 457.59C196.627 457.234 196.428 456.785 196.428 456.242C196.428 455.582 196.678 455.07 197.178 454.707C197.682 454.34 198.389 454.156 199.299 454.156H200.354V453.658C200.354 453.279 200.24 452.979 200.014 452.756C199.787 452.529 199.453 452.416 199.012 452.416C198.625 452.416 198.301 452.514 198.039 452.709C197.777 452.904 197.646 453.141 197.646 453.418H196.557C196.557 453.102 196.668 452.797 196.891 452.504C197.117 452.207 197.422 451.973 197.805 451.801C198.191 451.629 198.615 451.543 199.076 451.543C199.807 451.543 200.379 451.727 200.793 452.094C201.207 452.457 201.422 452.959 201.438 453.6V456.518C201.438 457.1 201.512 457.562 201.66 457.906V458H200.523ZM198.725 457.174C199.064 457.174 199.387 457.086 199.691 456.91C199.996 456.734 200.217 456.506 200.354 456.225V454.924H199.504C198.176 454.924 197.512 455.312 197.512 456.09C197.512 456.43 197.625 456.695 197.852 456.887C198.078 457.078 198.369 457.174 198.725 457.174ZM208.316 458H207.232V455.293H204.32V458H203.23V451.66H204.32V454.408H207.232V451.66H208.316V458ZM213.977 458C213.914 457.875 213.863 457.652 213.824 457.332C213.32 457.855 212.719 458.117 212.02 458.117C211.395 458.117 210.881 457.941 210.479 457.59C210.08 457.234 209.881 456.785 209.881 456.242C209.881 455.582 210.131 455.07 210.631 454.707C211.135 454.34 211.842 454.156 212.752 454.156H213.807V453.658C213.807 453.279 213.693 452.979 213.467 452.756C213.24 452.529 212.906 452.416 212.465 452.416C212.078 452.416 211.754 452.514 211.492 452.709C211.23 452.904 211.1 453.141 211.1 453.418H210.01C210.01 453.102 210.121 452.797 210.344 452.504C210.57 452.207 210.875 451.973 211.258 451.801C211.645 451.629 212.068 451.543 212.529 451.543C213.26 451.543 213.832 451.727 214.246 452.094C214.66 452.457 214.875 452.959 214.891 453.6V456.518C214.891 457.1 214.965 457.562 215.113 457.906V458H213.977ZM212.178 457.174C212.518 457.174 212.84 457.086 213.145 456.91C213.449 456.734 213.67 456.506 213.807 456.225V454.924H212.957C211.629 454.924 210.965 455.312 210.965 456.09C210.965 456.43 211.078 456.695 211.305 456.887C211.531 457.078 211.822 457.174 212.178 457.174ZM221.787 451.66V458H220.697V452.557H218.541L218.412 454.93C218.342 456.02 218.158 456.799 217.861 457.268C217.568 457.736 217.102 457.98 216.461 458H216.027V457.045L216.338 457.021C216.689 456.982 216.941 456.779 217.094 456.412C217.246 456.045 217.344 455.365 217.387 454.373L217.504 451.66H221.787Z" fill="#333333"/>
<defs>
<filter id="filter0_d_35_2" x="-2" y="438" width="129" height="76" filterUnits="userSpaceOnUse" color-interpolation-filters="sRGB">
<feFlood flood-opacity="0" result="BackgroundImageFix"/>
<feColorMatrix in="SourceAlpha" type="matrix" values="0 0 0 0 0 0 0 0 0 0 0 0 0 0 0 0 0 0 127 0" result="hardAlpha"/>
<feOffset dy="8"/>
<feGaussianBlur stdDeviation="9"/>
<feComposite in2="hardAlpha" operator="out"/>
<feColorMatrix type="matrix" values="0 0 0 0 0.2 0 0 0 0 0.2 0 0 0 0 0.2 0 0 0 0.15 0"/>
<feBlend mode="normal" in2="BackgroundImageFix" result="effect1_dropShadow_35_2"/>
<feBlend mode="normal" in="SourceGraphic" in2="effect1_dropShadow_35_2" result="shape"/>
</filter>
<filter id="filter1_d_35_2" x="247" y="438" width="130" height="76" filterUnits="userSpaceOnUse" color-interpolation-filters="sRGB">
<feFlood flood-opacity="0" result="BackgroundImageFix"/>
<feColorMatrix in="SourceAlpha" type="matrix" values="0 0 0 0 0 0 0 0 0 0 0 0 0 0 0 0 0 0 127 0" result="hardAlpha"/>
<feOffset dy="8"/>
<feGaussianBlur stdDeviation="9"/>
<feComposite in2="hardAlpha" operator="out"/>
<feColorMatrix type="matrix" values="0 0 0 0 0.2 0 0 0 0 0.2 0 0 0 0 0.2 0 0 0 0.15 0"/>
<feBlend mode="normal" in2="BackgroundImageFix" result="effect1_dropShadow_35_2"/>
<feBlend mode="normal" in="SourceGraphic" in2="effect1_dropShadow_35_2" result="shape"/>
</filter>
<filter id="filter2_d_35_2" x="0" y="0" width="375" height="240" filterUnits="userSpaceOnUse" color-interpolation-filters="sRGB">
<feFlood flood-opacity="0" result="BackgroundImageFix"/>
<feColorMatrix in="SourceAlpha" type="matrix" values="0 0 0 0 0 0 0 0 0 0 0 0 0 0 0 0 0 0 127 0" result="hardAlpha"/>
<feOffset dy="8"/>
<feGaussianBlur stdDeviation="8"/>
<feComposite in2="hardAlpha" operator="out"/>
<feColorMatrix type="matrix" values="0 0 0 0 0.2 0 0 0 0 0.2 0 0 0 0 0.2 0 0 0 0.15 0"/>
<feBlend mode="normal" in2="BackgroundImageFix" result="effect1_dropShadow_35_2"/>
<feBlend mode="normal" in="SourceGraphic" in2="effect1_dropShadow_35_2" result="shape"/>
</filter>
</defs>
</svg>
