<svg width="19" height="24" viewBox="0 0 19 24" fill="none" xmlns="http://www.w3.org/2000/svg">
<path d="M9.17338 7.22198C8.29738 7.22198 6.94138 6.22598 5.51338 6.26198C3.62938 6.28598 1.90138 7.35397 0.929378 9.04597C-1.02662 12.442 0.425378 17.458 2.33338 20.218C3.26938 21.562 4.37338 23.074 5.83738 23.026C7.24138 22.966 7.76938 22.114 9.47338 22.114C11.1654 22.114 11.6454 23.026 13.1334 22.99C14.6454 22.966 15.6054 21.622 16.5294 20.266C17.5974 18.706 18.0414 17.194 18.0654 17.11C18.0294 17.098 15.1254 15.982 15.0894 12.622C15.0654 9.81397 17.3814 8.46998 17.4894 8.40998C16.1694 6.47798 14.1414 6.26198 13.4334 6.21398C11.5854 6.06998 10.0374 7.22198 9.17338 7.22198ZM12.2934 4.38998C13.0734 3.45398 13.5894 2.14598 13.4454 0.849976C12.3294 0.897976 10.9854 1.59398 10.1814 2.52998C9.46138 3.35798 8.83738 4.68998 9.00538 5.96198C10.2414 6.05798 11.5134 5.32598 12.2934 4.38998Z" fill="#333333"/>
</svg>
