<svg width="7" height="14" viewBox="0 0 7 14" fill="none" xmlns="http://www.w3.org/2000/svg">
<path fill-rule="evenodd" clip-rule="evenodd" d="M6.73635 0.00273089L5.05731 0C3.1712 0 1.95262 1.35252 1.95262 3.44547V5.03431H0.264491C0.118356 5.03431 0 5.16156 0 5.31941V7.62155C0 7.77867 0.118356 7.90666 0.264491 7.90666H1.95262V13.7149C1.95262 13.872 2.0703 14 2.21627 14H4.41873C4.56487 14 4.68255 13.872 4.68255 13.7149V7.90666H6.65604C6.80201 7.90666 6.92054 7.77867 6.92054 7.62155L6.92121 5.31941C6.92121 5.24404 6.8936 5.17158 6.8436 5.11751C6.79427 5.06416 6.72709 5.03431 6.65672 5.03431H4.68255V3.68743C4.68255 3.04021 4.82515 2.71159 5.60515 2.71159L6.73568 2.71086C6.88164 2.71086 7 2.58288 7 2.42576V0.288746C7 0.130719 6.88164 0.00345913 6.73635 0.00273089Z" fill="#333333"/>
</svg>
